<svg width="107" height="32" viewBox="0 0 107 32" fill="none" xmlns="http://www.w3.org/2000/svg">
<path d="M102 0H31V32H102C104.761 32 107 29.7614 107 27V5C107 2.23858 104.761 0 102 0Z" fill="white"/>
<path d="M31 0H5C2.23858 0 0 2.23858 0 5V27C0 29.7614 2.23858 32 5 32H31V0Z" fill="#FF2D20"/>
<g clip-path="url(#clip0_17_36)">
<path d="M27.9855 9.64584C27.9944 9.67908 27.999 9.71336 27.999 9.74783V15.1046C27.999 15.2446 27.925 15.3739 27.8047 15.4435L23.3541 18.0322V23.1629C23.3541 23.2315 23.3362 23.299 23.3023 23.3585C23.2684 23.418 23.2196 23.4674 23.1608 23.5018L13.87 28.9046C13.8488 28.9167 13.8256 28.9244 13.8024 28.9329C13.7936 28.9357 13.7855 28.9411 13.7763 28.9436C13.7113 28.9608 13.6431 28.9608 13.5781 28.9436C13.5674 28.9407 13.5578 28.9348 13.5477 28.9309C13.5264 28.923 13.5042 28.9162 13.4839 28.9046L4.19506 23.5017C4.13604 23.4675 4.08699 23.4181 4.05287 23.3587C4.01875 23.2992 4.00077 23.2316 4.00073 23.1629V7.09243C4.00073 7.05721 4.00561 7.02302 4.01423 6.98988C4.01714 6.97861 4.02389 6.96838 4.02782 6.95711C4.03504 6.93666 4.04189 6.91563 4.05248 6.8966C4.0597 6.88391 4.07029 6.87368 4.07901 6.86194C4.09016 6.84632 4.10029 6.83022 4.11332 6.81649C4.12447 6.80531 4.139 6.79698 4.15157 6.78723C4.16563 6.77548 4.17809 6.76279 4.19403 6.75351H4.1945L8.83911 4.05219C8.89792 4.018 8.96459 4 9.03245 4C9.10031 4 9.16698 4.018 9.2258 4.05219L13.8704 6.75351H13.8713C13.8868 6.76336 13.8999 6.77548 13.9139 6.78675C13.9265 6.79651 13.9405 6.80531 13.9516 6.81611C13.9652 6.83022 13.9748 6.84641 13.9864 6.86194C13.9946 6.87368 14.0058 6.88391 14.0125 6.8966C14.0236 6.91611 14.0299 6.93666 14.0376 6.95721C14.0415 6.96838 14.0482 6.97861 14.0511 6.99035C14.0601 7.02359 14.0646 7.05796 14.0647 7.09243V17.1297L17.935 14.8785V9.74736C17.935 9.71327 17.9399 9.67851 17.9486 9.64584C17.952 9.6341 17.9583 9.62387 17.9621 9.6127C17.9699 9.59215 17.9766 9.57103 17.9872 9.55209C17.9945 9.5394 18.0051 9.52918 18.0134 9.51743C18.0249 9.50181 18.0346 9.48571 18.0481 9.47198C18.0593 9.46081 18.0733 9.45247 18.0859 9.44272C18.1004 9.43098 18.113 9.41829 18.1284 9.40901H18.1289L22.774 6.70768C22.8328 6.67344 22.8994 6.65542 22.9673 6.65542C23.0352 6.65542 23.1019 6.67344 23.1607 6.70768L27.8053 9.40901C27.8217 9.41876 27.8342 9.43098 27.8488 9.44215C27.8608 9.452 27.8748 9.46081 27.886 9.47151C27.8995 9.48571 27.9091 9.50181 27.9207 9.51743C27.9295 9.52918 27.9401 9.5394 27.9469 9.55209C27.958 9.57103 27.9643 9.59215 27.9719 9.6127C27.9763 9.62387 27.9826 9.6341 27.9855 9.64584ZM27.2248 14.8786V10.4241L25.5994 11.3692L23.354 12.6753V17.1298L27.2253 14.8786H27.2248ZM22.5802 22.9368V18.4792L20.3714 19.7535L14.0643 23.3899V27.8893L22.5802 22.9368ZM4.77496 7.76857V22.9368L13.29 27.8889V23.3904L8.84164 20.8472L8.84023 20.8462L8.83836 20.8453C8.82336 20.8365 8.8107 20.8238 8.79674 20.8131C8.78455 20.8032 8.77058 20.7955 8.75999 20.7847L8.75905 20.7832C8.74649 20.771 8.73777 20.7559 8.72718 20.7422C8.71743 20.729 8.7059 20.7178 8.69812 20.7042L8.69765 20.7027C8.68893 20.6881 8.68359 20.6705 8.67731 20.6539C8.67103 20.6392 8.66287 20.6255 8.65893 20.61V20.6095C8.65415 20.5909 8.65322 20.5713 8.65125 20.5523C8.64937 20.5377 8.64544 20.523 8.64544 20.5083V10.0199L6.40038 8.71327L4.77496 7.76914V7.76857ZM9.03297 4.84215L5.16306 7.09243L9.03203 9.34262L12.9014 7.09187L9.03203 4.84215H9.03297ZM11.0455 18.8855L13.2904 17.58V7.76857L11.6652 8.71384L9.41957 10.0198V19.8312L11.0455 18.8855ZM22.9673 7.49764L19.0979 9.74783L22.9673 11.9981L26.8361 9.74736L22.9673 7.49764ZM22.5801 12.6753L20.3347 11.3692L18.7093 10.4241V14.8786L20.9543 16.1842L22.5802 17.1298L22.5801 12.6753ZM13.6766 22.7137L19.3521 19.4406L22.1892 17.805L18.3227 15.5563L13.8709 18.1453L9.81348 20.5049L13.6766 22.7137Z" fill="white"/>
</g>
<path d="M51.834 19.2861V21H46.4654V19.2861H51.834ZM47.1758 10.3359V21H44.9786V10.3359H47.1758ZM57.4193 19.2129V15.6826C57.4193 15.4287 57.3778 15.2114 57.2948 15.0308C57.2118 14.8452 57.0824 14.7012 56.9066 14.5986C56.7357 14.4961 56.5135 14.4448 56.2401 14.4448C56.0057 14.4448 55.8031 14.4863 55.6322 14.5693C55.4613 14.6475 55.3295 14.7622 55.2367 14.9136C55.1439 15.0601 55.0975 15.2334 55.0975 15.4336H52.9881C52.9881 15.0967 53.0663 14.7769 53.2225 14.4741C53.3788 14.1714 53.6058 13.9053 53.9037 13.6758C54.2015 13.4414 54.5555 13.2583 54.9657 13.1265C55.3807 12.9946 55.8446 12.9287 56.3573 12.9287C56.9725 12.9287 57.5194 13.0312 57.9979 13.2363C58.4764 13.4414 58.8524 13.749 59.1258 14.1592C59.4042 14.5693 59.5433 15.082 59.5433 15.6973V19.0884C59.5433 19.5229 59.5702 19.8794 59.6239 20.1577C59.6776 20.4312 59.7557 20.6704 59.8583 20.8755V21H57.7269C57.6244 20.7852 57.5462 20.5166 57.4925 20.1943C57.4437 19.8672 57.4193 19.54 57.4193 19.2129ZM57.6976 16.1733L57.7123 17.3672H56.5331C56.2547 17.3672 56.013 17.3989 55.808 17.4624C55.6029 17.5259 55.4344 17.6162 55.3026 17.7334C55.1708 17.8457 55.0731 17.9775 55.0096 18.1289C54.951 18.2803 54.9217 18.4463 54.9217 18.627C54.9217 18.8076 54.9632 18.9712 55.0462 19.1177C55.1293 19.2593 55.2489 19.3716 55.4051 19.4546C55.5614 19.5327 55.7445 19.5718 55.9545 19.5718C56.2718 19.5718 56.5477 19.5083 56.7821 19.3813C57.0165 19.2544 57.1971 19.0981 57.3241 18.9126C57.4559 18.7271 57.5243 18.5513 57.5292 18.3853L58.0858 19.2788C58.0077 19.479 57.9003 19.6865 57.7635 19.9014C57.6317 20.1162 57.4632 20.3188 57.2582 20.5093C57.0531 20.6948 56.8065 20.8486 56.5184 20.9707C56.2303 21.0879 55.8885 21.1465 55.493 21.1465C54.9901 21.1465 54.5336 21.0464 54.1234 20.8462C53.7181 20.6411 53.3959 20.3604 53.1566 20.0039C52.9222 19.6426 52.805 19.2324 52.805 18.7734C52.805 18.3584 52.8832 17.9897 53.0394 17.6675C53.1957 17.3452 53.4252 17.0742 53.7279 16.8545C54.0355 16.6299 54.4188 16.4614 54.8778 16.3491C55.3368 16.2319 55.869 16.1733 56.4745 16.1733H57.6976ZM63.4587 14.8037V21H61.3493V13.0752H63.3342L63.4587 14.8037ZM65.8464 13.0239L65.8097 14.9795C65.7072 14.9648 65.5827 14.9526 65.4362 14.9429C65.2946 14.9282 65.1652 14.9209 65.048 14.9209C64.7502 14.9209 64.4914 14.96 64.2717 15.0381C64.0568 15.1113 63.8762 15.2212 63.7297 15.3677C63.5881 15.5142 63.4806 15.6924 63.4074 15.9023C63.339 16.1123 63.3 16.3516 63.2902 16.6201L62.8654 16.4883C62.8654 15.9756 62.9167 15.5044 63.0192 15.0747C63.1218 14.6401 63.2707 14.2617 63.466 13.9395C63.6662 13.6172 63.9103 13.3682 64.1984 13.1924C64.4865 13.0166 64.8161 12.9287 65.1872 12.9287C65.3044 12.9287 65.424 12.9385 65.5461 12.958C65.6681 12.9727 65.7682 12.9946 65.8464 13.0239ZM71.0508 19.2129V15.6826C71.0508 15.4287 71.0093 15.2114 70.9263 15.0308C70.8433 14.8452 70.7139 14.7012 70.5381 14.5986C70.3672 14.4961 70.145 14.4448 69.8716 14.4448C69.6372 14.4448 69.4346 14.4863 69.2637 14.5693C69.0928 14.6475 68.9609 14.7622 68.8682 14.9136C68.7754 15.0601 68.729 15.2334 68.729 15.4336H66.6196C66.6196 15.0967 66.6978 14.7769 66.854 14.4741C67.0103 14.1714 67.2373 13.9053 67.5352 13.6758C67.833 13.4414 68.187 13.2583 68.5972 13.1265C69.0122 12.9946 69.4761 12.9287 69.9888 12.9287C70.604 12.9287 71.1509 13.0312 71.6294 13.2363C72.1079 13.4414 72.4839 13.749 72.7573 14.1592C73.0356 14.5693 73.1748 15.082 73.1748 15.6973V19.0884C73.1748 19.5229 73.2017 19.8794 73.2554 20.1577C73.3091 20.4312 73.3872 20.6704 73.4897 20.8755V21H71.3584C71.2559 20.7852 71.1777 20.5166 71.124 20.1943C71.0752 19.8672 71.0508 19.54 71.0508 19.2129ZM71.3291 16.1733L71.3438 17.3672H70.1646C69.8862 17.3672 69.6445 17.3989 69.4395 17.4624C69.2344 17.5259 69.0659 17.6162 68.9341 17.7334C68.8022 17.8457 68.7046 17.9775 68.6411 18.1289C68.5825 18.2803 68.5532 18.4463 68.5532 18.627C68.5532 18.8076 68.5947 18.9712 68.6777 19.1177C68.7607 19.2593 68.8804 19.3716 69.0366 19.4546C69.1929 19.5327 69.376 19.5718 69.5859 19.5718C69.9033 19.5718 70.1792 19.5083 70.4136 19.3813C70.6479 19.2544 70.8286 19.0981 70.9556 18.9126C71.0874 18.7271 71.1558 18.5513 71.1606 18.3853L71.7173 19.2788C71.6392 19.479 71.5317 19.6865 71.395 19.9014C71.2632 20.1162 71.0947 20.3188 70.8896 20.5093C70.6846 20.6948 70.438 20.8486 70.1499 20.9707C69.8618 21.0879 69.52 21.1465 69.1245 21.1465C68.6216 21.1465 68.165 21.0464 67.7549 20.8462C67.3496 20.6411 67.0273 20.3604 66.7881 20.0039C66.5537 19.6426 66.4365 19.2324 66.4365 18.7734C66.4365 18.3584 66.5146 17.9897 66.6709 17.6675C66.8271 17.3452 67.0566 17.0742 67.3594 16.8545C67.667 16.6299 68.0503 16.4614 68.5093 16.3491C68.9683 16.2319 69.5005 16.1733 70.106 16.1733H71.3291ZM77.5589 19.4619L79.3167 13.0752H81.5213L78.848 21H77.515L77.5589 19.4619ZM76.3504 13.0752L78.1155 19.4692L78.1522 21H76.8118L74.1385 13.0752H76.3504ZM86.1911 21.1465C85.5758 21.1465 85.0241 21.0488 84.5358 20.8535C84.0475 20.6533 83.6325 20.3774 83.2907 20.0259C82.9538 19.6743 82.695 19.2666 82.5143 18.8027C82.3336 18.334 82.2433 17.8359 82.2433 17.3086V17.0156C82.2433 16.415 82.3288 15.8657 82.4996 15.3677C82.6705 14.8696 82.9147 14.4375 83.2321 14.0713C83.5543 13.7051 83.945 13.4243 84.4039 13.229C84.8629 13.0288 85.3805 12.9287 85.9567 12.9287C86.5182 12.9287 87.0163 13.0215 87.4508 13.207C87.8854 13.3926 88.2492 13.6562 88.5421 13.998C88.84 14.3398 89.0646 14.75 89.216 15.2285C89.3673 15.7021 89.443 16.2295 89.443 16.8105V17.6895H83.1442V16.2832H87.3703V16.1221C87.3703 15.8291 87.3165 15.5679 87.2091 15.3384C87.1066 15.104 86.9503 14.9185 86.7404 14.7817C86.5304 14.645 86.2619 14.5767 85.9347 14.5767C85.6564 14.5767 85.4171 14.6377 85.2169 14.7598C85.0167 14.8818 84.8532 15.0527 84.7262 15.2725C84.6041 15.4922 84.5114 15.751 84.4479 16.0488C84.3893 16.3418 84.36 16.6641 84.36 17.0156V17.3086C84.36 17.626 84.4039 17.9189 84.4918 18.1875C84.5846 18.4561 84.714 18.688 84.88 18.8833C85.0509 19.0786 85.256 19.23 85.4953 19.3374C85.7394 19.4448 86.0153 19.4985 86.3229 19.4985C86.7038 19.4985 87.0578 19.4253 87.3849 19.2788C87.7169 19.1274 88.0026 18.9004 88.2418 18.5977L89.2672 19.7109C89.1012 19.9502 88.8742 20.1797 88.5861 20.3994C88.3029 20.6191 87.9611 20.7998 87.5607 20.9414C87.1603 21.0781 86.7038 21.1465 86.1911 21.1465ZM93.0507 9.75V21H90.934V9.75H93.0507Z" fill="#0F1418"/>
<path d="M102 0H5C2.23858 0 0 2.23858 0 5V27C0 29.7614 2.23858 32 5 32H102C104.761 32 107 29.7614 107 27V5C107 2.23858 104.761 0 102 0Z" fill="url(#paint0_linear_17_36)"/>
<defs>
<linearGradient id="paint0_linear_17_36" x1="0" y1="0" x2="0" y2="32" gradientUnits="userSpaceOnUse">
<stop stop-color="#BBBBBB" stop-opacity="0.1"/>
<stop offset="1" stop-opacity="0.1"/>
</linearGradient>
<clipPath id="clip0_17_36">
<rect width="24" height="25" fill="white" transform="translate(4 4)"/>
</clipPath>
</defs>
</svg>
