<svg width="127" height="32" viewBox="0 0 127 32" fill="none" xmlns="http://www.w3.org/2000/svg">
<path d="M122 0H31V32H122C124.761 32 127 29.7614 127 27V5C127 2.23858 124.761 0 122 0Z" fill="white"/>
<path d="M31 0H5C2.23858 0 0 2.23858 0 5V27C0 29.7614 2.23858 32 5 32H31V0Z" fill="#77BC1F"/>
<g clip-path="url(#clip0_28_15)">
<path d="M24.925 5.1937C24.6028 5.96648 24.1905 6.69845 23.6964 7.37438C21.5319 5.21111 18.5971 3.99573 15.5368 3.99536C9.20806 3.99536 4 9.20774 4 15.5435C3.99993 17.1081 4.31754 18.6563 4.93359 20.0945C5.54963 21.5327 6.45127 22.8308 7.58387 23.9101L8.00937 24.2875C10.0889 26.0408 12.7209 27.0031 15.4409 27.0047C21.4581 27.0047 26.5163 22.2897 26.9447 16.2804C27.2593 13.3388 26.3964 9.61814 24.925 5.1937ZM9.22298 23.9759C9.13034 24.09 9.01342 24.1821 8.88072 24.2453C8.74802 24.3085 8.60288 24.3413 8.45589 24.3414C7.91359 24.3414 7.46995 23.895 7.46995 23.3527C7.46995 22.8106 7.91647 22.3643 8.45589 22.3643C8.6805 22.3643 8.90241 22.4421 9.07617 22.586C9.49862 22.9274 9.56456 23.5534 9.22298 23.9759ZM24.8772 20.5191C22.0304 24.3144 15.9503 23.0352 12.0518 23.218C12.0518 23.218 11.3596 23.26 10.6644 23.3738C10.6644 23.3738 10.925 23.2629 11.2637 23.1341C13.9996 22.1815 15.2941 21.9957 16.9571 21.142C20.0885 19.5484 23.184 16.0616 23.8283 12.4338C22.6357 15.9237 19.0217 18.9224 15.7286 20.1415C13.4722 20.9744 9.39673 21.7832 9.39673 21.7832L9.23196 21.6962C6.45723 20.3453 6.37313 14.3331 11.4164 12.392C13.625 11.5412 15.7375 12.0085 18.1229 11.4393C20.67 10.8343 23.6156 8.92293 24.8141 6.43067C26.1565 10.4179 27.7719 16.6606 24.8772 20.5191Z" fill="white"/>
</g>
<path d="M62.9934 19.2095C62.9934 19.019 62.9641 18.8481 62.9055 18.6968C62.8518 18.5405 62.7492 18.3989 62.5979 18.272C62.4465 18.1401 62.2341 18.0107 61.9606 17.8838C61.6872 17.7568 61.3332 17.625 60.8986 17.4883C60.4152 17.332 59.9562 17.1562 59.5217 16.9609C59.092 16.7656 58.7111 16.5386 58.3791 16.2798C58.052 16.0161 57.7932 15.7109 57.6027 15.3643C57.4172 15.0176 57.3244 14.6147 57.3244 14.1558C57.3244 13.7114 57.4221 13.3086 57.6174 12.9473C57.8127 12.5811 58.0861 12.2686 58.4377 12.0098C58.7893 11.7461 59.2043 11.5435 59.6828 11.4019C60.1662 11.2603 60.696 11.1895 61.2722 11.1895C62.0583 11.1895 62.7443 11.3311 63.3303 11.6143C63.9162 11.8975 64.3703 12.2856 64.6926 12.7788C65.0197 13.272 65.1833 13.8359 65.1833 14.4707H63.0007C63.0007 14.1582 62.9348 13.8848 62.8029 13.6504C62.676 13.4111 62.4807 13.2231 62.217 13.0864C61.9582 12.9497 61.6311 12.8813 61.2355 12.8813C60.8547 12.8813 60.5373 12.9399 60.2834 13.0571C60.0295 13.1694 59.8391 13.3232 59.7121 13.5186C59.5852 13.709 59.5217 13.9238 59.5217 14.1631C59.5217 14.3438 59.5656 14.5073 59.6535 14.6538C59.7463 14.8003 59.883 14.937 60.0637 15.064C60.2443 15.1909 60.4665 15.3105 60.7302 15.4229C60.9938 15.5352 61.299 15.645 61.6457 15.7524C62.2268 15.9282 62.737 16.126 63.1765 16.3457C63.6208 16.5654 63.9919 16.812 64.2897 17.0854C64.5876 17.3589 64.8122 17.6689 64.9636 18.0156C65.1149 18.3623 65.1906 18.7554 65.1906 19.1948C65.1906 19.6587 65.1003 20.0737 64.9196 20.4399C64.739 20.8062 64.4777 21.1162 64.1359 21.3701C63.7941 21.624 63.3864 21.8169 62.9128 21.9487C62.4392 22.0806 61.9094 22.1465 61.3234 22.1465C60.7961 22.1465 60.2761 22.0781 59.7634 21.9414C59.2507 21.7998 58.7844 21.5874 58.3645 21.3042C57.9494 21.021 57.6174 20.6597 57.3684 20.2202C57.1193 19.7808 56.9948 19.2607 56.9948 18.6602H59.1994C59.1994 18.9922 59.2507 19.2729 59.3532 19.5024C59.4558 19.7319 59.5998 19.9175 59.7854 20.0591C59.9758 20.2007 60.2004 20.3032 60.4592 20.3667C60.7229 20.4302 61.0109 20.4619 61.3234 20.4619C61.7043 20.4619 62.0168 20.4082 62.2609 20.3008C62.51 20.1934 62.6931 20.0444 62.8103 19.854C62.9323 19.6636 62.9934 19.4487 62.9934 19.2095ZM68.8423 15.5986V25.0469H66.7329V14.0752H68.6885L68.8423 15.5986ZM73.8594 17.9497V18.1035C73.8594 18.6797 73.791 19.2144 73.6543 19.7075C73.5225 20.2007 73.3272 20.6304 73.0684 20.9966C72.8096 21.3579 72.4873 21.6411 72.1016 21.8462C71.7207 22.0464 71.2813 22.1465 70.7832 22.1465C70.2998 22.1465 69.8799 22.0488 69.5235 21.8535C69.167 21.6582 68.8667 21.3848 68.6226 21.0332C68.3833 20.6768 68.1904 20.2642 68.044 19.7954C67.8975 19.3267 67.7852 18.8237 67.7071 18.2866V17.8838C67.7852 17.3076 67.8975 16.7803 68.044 16.3018C68.1904 15.8184 68.3833 15.4009 68.6226 15.0493C68.8667 14.6929 69.1646 14.417 69.5161 14.2217C69.8726 14.0264 70.2901 13.9287 70.7686 13.9287C71.2715 13.9287 71.7134 14.0239 72.0943 14.2144C72.48 14.4048 72.8023 14.6782 73.0611 15.0347C73.3247 15.3911 73.5225 15.8159 73.6543 16.3091C73.791 16.8022 73.8594 17.3491 73.8594 17.9497ZM71.7427 18.1035V17.9497C71.7427 17.6128 71.7134 17.3027 71.6548 17.0195C71.6011 16.7314 71.5132 16.48 71.3911 16.2651C71.2739 16.0503 71.1177 15.8843 70.9224 15.7671C70.732 15.645 70.5 15.584 70.2266 15.584C69.9385 15.584 69.6919 15.6304 69.4868 15.7231C69.2866 15.8159 69.1231 15.9502 68.9961 16.126C68.8692 16.3018 68.7739 16.5117 68.7105 16.7559C68.647 17 68.6079 17.2759 68.5933 17.5835V18.6016C68.6177 18.9629 68.6861 19.2876 68.7984 19.5757C68.9107 19.8589 69.084 20.0835 69.3184 20.2495C69.5528 20.4155 69.8604 20.4985 70.2412 20.4985C70.5196 20.4985 70.7539 20.4375 70.9444 20.3154C71.1348 20.1885 71.2886 20.0151 71.4058 19.7954C71.5279 19.5757 71.6133 19.3218 71.6621 19.0337C71.7158 18.7456 71.7427 18.4355 71.7427 18.1035ZM77.4598 15.8037V22H75.3504V14.0752H77.3353L77.4598 15.8037ZM79.8475 14.0239L79.8109 15.9795C79.7083 15.9648 79.5838 15.9526 79.4373 15.9429C79.2957 15.9282 79.1663 15.9209 79.0492 15.9209C78.7513 15.9209 78.4925 15.96 78.2728 16.0381C78.0579 16.1113 77.8773 16.2212 77.7308 16.3677C77.5892 16.5142 77.4818 16.6924 77.4085 16.9023C77.3402 17.1123 77.3011 17.3516 77.2913 17.6201L76.8665 17.4883C76.8665 16.9756 76.9178 16.5044 77.0204 16.0747C77.1229 15.6401 77.2718 15.2617 77.4671 14.9395C77.6673 14.6172 77.9115 14.3682 78.1996 14.1924C78.4876 14.0166 78.8172 13.9287 79.1883 13.9287C79.3055 13.9287 79.4251 13.9385 79.5472 13.958C79.6693 13.9727 79.7694 13.9946 79.8475 14.0239ZM83.2502 14.0752V22H81.1335V14.0752H83.2502ZM81.0016 12.0098C81.0016 11.7021 81.109 11.4482 81.3239 11.248C81.5387 11.0479 81.8268 10.9478 82.1881 10.9478C82.5446 10.9478 82.8302 11.0479 83.0451 11.248C83.2648 11.4482 83.3747 11.7021 83.3747 12.0098C83.3747 12.3174 83.2648 12.5713 83.0451 12.7715C82.8302 12.9717 82.5446 13.0718 82.1881 13.0718C81.8268 13.0718 81.5387 12.9717 81.3239 12.7715C81.109 12.5713 81.0016 12.3174 81.0016 12.0098ZM87.2387 15.7671V22H85.1294V14.0752H87.1069L87.2387 15.7671ZM86.9311 17.7593H86.3598C86.3598 17.1733 86.4355 16.646 86.5869 16.1772C86.7383 15.7036 86.9507 15.3008 87.2241 14.9688C87.4975 14.6318 87.8222 14.3755 88.1982 14.1997C88.5791 14.019 89.0039 13.9287 89.4726 13.9287C89.8437 13.9287 90.1831 13.9824 90.4907 14.0898C90.7983 14.1973 91.062 14.3682 91.2817 14.6025C91.5063 14.8369 91.6772 15.147 91.7944 15.5327C91.9165 15.9185 91.9775 16.3896 91.9775 16.9463V22H89.8535V16.939C89.8535 16.5874 89.8047 16.314 89.707 16.1187C89.6094 15.9233 89.4653 15.7866 89.2749 15.7085C89.0893 15.6255 88.8598 15.584 88.5864 15.584C88.3032 15.584 88.0566 15.6401 87.8467 15.7524C87.6416 15.8647 87.4707 16.021 87.334 16.2212C87.2021 16.4165 87.102 16.646 87.0337 16.9097C86.9653 17.1733 86.9311 17.4565 86.9311 17.7593ZM98.7786 14.0752H100.69V21.7363C100.69 22.459 100.529 23.0718 100.207 23.5747C99.8895 24.0825 99.4451 24.4658 98.8738 24.7246C98.3025 24.9883 97.6385 25.1201 96.8816 25.1201C96.5496 25.1201 96.198 25.0762 95.827 24.9883C95.4607 24.9004 95.1092 24.7637 94.7723 24.5781C94.4402 24.3926 94.1619 24.1582 93.9373 23.875L94.8675 22.6299C95.1116 22.9131 95.3948 23.1328 95.7171 23.2891C96.0394 23.4502 96.3958 23.5308 96.7864 23.5308C97.1673 23.5308 97.4896 23.46 97.7532 23.3184C98.0169 23.1816 98.2195 22.979 98.3611 22.7104C98.5027 22.4468 98.5735 22.127 98.5735 21.751V15.9062L98.7786 14.0752ZM93.4466 18.1328V17.979C93.4466 17.3735 93.5198 16.8242 93.6663 16.3311C93.8177 15.833 94.0301 15.4058 94.3035 15.0493C94.5818 14.6929 94.9188 14.417 95.3143 14.2217C95.7098 14.0264 96.1565 13.9287 96.6546 13.9287C97.1819 13.9287 97.6238 14.0264 97.9803 14.2217C98.3367 14.417 98.6297 14.6953 98.8592 15.0566C99.0887 15.4131 99.2669 15.8354 99.3938 16.3237C99.5257 16.8071 99.6282 17.3369 99.7015 17.9131V18.25C99.6282 18.8018 99.5184 19.3145 99.3719 19.7881C99.2254 20.2617 99.0325 20.6768 98.7933 21.0332C98.554 21.3848 98.2562 21.6582 97.8997 21.8535C97.5481 22.0488 97.1282 22.1465 96.6399 22.1465C96.1517 22.1465 95.7098 22.0464 95.3143 21.8462C94.9236 21.646 94.5892 21.3652 94.3108 21.0039C94.0325 20.6426 93.8177 20.2178 93.6663 19.7295C93.5198 19.2412 93.4466 18.709 93.4466 18.1328ZM95.556 17.979V18.1328C95.556 18.46 95.5877 18.7651 95.6512 19.0483C95.7146 19.3315 95.8123 19.583 95.9441 19.8027C96.0809 20.0176 96.2493 20.186 96.4495 20.3081C96.6546 20.4253 96.8963 20.4839 97.1746 20.4839C97.5604 20.4839 97.8753 20.4033 98.1194 20.2422C98.3636 20.0762 98.5467 19.8491 98.6688 19.561C98.7908 19.2729 98.8616 18.9409 98.8812 18.5649V17.6055C98.8714 17.2979 98.8299 17.022 98.7566 16.7778C98.6834 16.5288 98.5809 16.3164 98.449 16.1406C98.3172 15.9648 98.1463 15.8281 97.9363 15.7305C97.7264 15.6328 97.4773 15.584 97.1893 15.584C96.9109 15.584 96.6692 15.6475 96.4642 15.7744C96.264 15.8965 96.0955 16.0649 95.9588 16.2798C95.827 16.4946 95.7269 16.7485 95.6585 17.0415C95.5901 17.3296 95.556 17.6421 95.556 17.979Z" fill="#0F1418"/>
<path d="M122 0H5C2.23858 0 0 2.23858 0 5V27C0 29.7614 2.23857 32 5 32H122C124.761 32 127 29.7614 127 27V5C127 2.23858 124.761 0 122 0Z" fill="url(#paint0_linear_28_15)"/>
<defs>
<linearGradient id="paint0_linear_28_15" x1="0" y1="0" x2="0" y2="32" gradientUnits="userSpaceOnUse">
<stop stop-color="#BBBBBB" stop-opacity="0.1"/>
<stop offset="1" stop-opacity="0.1"/>
</linearGradient>
<clipPath id="clip0_28_15">
<rect width="23" height="23" fill="white" transform="translate(4 4)"/>
</clipPath>
</defs>
</svg>
