<svg width="107" height="32" viewBox="0 0 107 32" fill="none" xmlns="http://www.w3.org/2000/svg">
<path d="M102 0H31V32H102C104.761 32 107 29.7614 107 27V5C107 2.23858 104.761 0 102 0Z" fill="white"/>
<path d="M31 0H5C2.23858 0 0 2.23858 0 5V27C0 29.7614 2.23858 32 5 32H31V0Z" fill="#013157"/>
<g clip-path="url(#clip0_28_2)">
<path d="M23.7959 3.00037C25.5395 3.89974 27.0371 6.25986 26.9621 9.46241C26.7342 13.4084 23.9077 16.8092 20.8325 19.9425C20.6603 16.1214 19.8395 13.6862 18.5578 10.2618C17.3478 6.81088 20.8854 3.11082 23.7959 3.00037Z" fill="url(#paint0_linear_28_2)"/>
<path d="M14.3642 19.8082C15.3005 18.6293 15.9641 17.5794 16.4272 16.6309C19.5995 18.3098 18.851 17.9962 20.3809 19.785C20.3861 19.8407 20.391 19.8962 20.3956 19.9516C20.5225 22.4318 18.7351 28.1657 11.6969 28.9514C11.2097 25.0986 12.7936 21.8122 14.3642 19.8082Z" fill="url(#paint1_linear_28_2)"/>
<path d="M3.03742 5.39571C8.05221 3.38698 13.4493 5.44468 16.5651 9.73193C16.8682 10.1494 17.154 10.5794 17.422 11.0207C17.9089 14.1668 17.5376 15.914 16.59 16.8403C15.9668 16.522 15.302 16.2398 14.5923 15.9789C12.9424 15.3721 11.4196 14.9705 9.24481 14.3187C4.08068 12.8922 2.80718 8.40991 3.03742 5.39571Z" fill="url(#paint2_linear_28_2)"/>
<path d="M17.2304 10.7126C17.2633 10.7644 17.2958 10.8157 17.3278 10.8678L17.3674 10.932C17.4478 11.0629 17.5268 11.1945 17.6046 11.3277L17.6177 11.3499L17.6386 11.386L17.6576 11.4193L17.7133 11.5161L17.7172 11.5231L17.7926 11.6571L17.795 11.661C17.8496 11.7586 17.9034 11.8566 17.9563 11.9551L17.9629 11.9677L18.0217 12.0781L18.0233 12.081L18.0879 12.2039L18.1065 12.2399L18.1425 12.3101L18.1865 12.3966L18.2292 12.4805C18.2725 12.5674 18.3154 12.6544 18.3576 12.7413L18.3685 12.7629C18.4445 12.9204 18.5187 13.079 18.5909 13.2383L18.646 13.3602L18.6513 13.3723L18.6866 13.4515L18.7276 13.5451L18.7508 13.5992L18.788 13.6858L18.8146 13.748L18.8708 13.882L18.8746 13.8914L18.9346 14.037L18.9419 14.0547C19.0058 14.2122 19.0677 14.3697 19.1277 14.5282L19.1335 14.5428L19.183 14.6757L19.1861 14.683L19.2148 14.7613C19.2465 14.8483 19.2779 14.9353 19.3088 15.0226L19.3208 15.0567C19.3549 15.1542 19.3885 15.2522 19.421 15.3497L19.4314 15.3806C19.462 15.4723 19.4914 15.5639 19.5209 15.6556L19.5352 15.7007L19.5387 15.7112L19.5851 15.8597L19.587 15.8663L19.63 16.0081L19.6729 16.1542L19.6741 16.1574L19.7098 16.2807L19.721 16.3208L19.7426 16.3972C19.7669 16.4852 19.7909 16.573 19.8142 16.6611L19.8316 16.7269L19.8653 16.8569L19.8668 16.8633C19.9078 17.0231 19.9465 17.1829 19.9833 17.3423L19.9868 17.3588L19.9906 17.3756C20.0386 17.5859 20.0828 17.7956 20.1234 18.0043L20.1273 18.0251C20.1894 18.3461 20.2431 18.6687 20.2883 18.9926L20.289 18.9969C20.303 19.0956 20.3157 19.1939 20.3277 19.2923L20.3327 19.3345L20.349 19.4751V19.4755L20.3629 19.6056L20.3676 19.6487L20.3776 19.7517L20.3815 19.7932L20.383 19.8101L20.3954 19.9515C19.2875 18.5072 17.9641 17.5118 16.376 16.7332C17.6576 14.1683 17.4776 12.3407 17.2304 10.7126Z" fill="url(#paint3_linear_28_2)"/>
</g>
<path d="M62.6237 10.3359L64.8503 15.1992L67.0768 10.3359H69.4719L65.9636 17.1182V21H63.737V17.1182L60.2214 10.3359H62.6237ZM72.7207 13.0752V21H70.604V13.0752H72.7207ZM70.4722 11.0098C70.4722 10.7021 70.5796 10.4482 70.7944 10.248C71.0093 10.0479 71.2974 9.94775 71.6587 9.94775C72.0151 9.94775 72.3008 10.0479 72.5156 10.248C72.7354 10.4482 72.8452 10.7021 72.8452 11.0098C72.8452 11.3174 72.7354 11.5713 72.5156 11.7715C72.3008 11.9717 72.0151 12.0718 71.6587 12.0718C71.2974 12.0718 71.0093 11.9717 70.7944 11.7715C70.5796 11.5713 70.4722 11.3174 70.4722 11.0098ZM76.8704 13.0752V21H74.7537V13.0752H76.8704ZM74.6219 11.0098C74.6219 10.7021 74.7293 10.4482 74.9442 10.248C75.159 10.0479 75.4471 9.94775 75.8084 9.94775C76.1649 9.94775 76.4505 10.0479 76.6654 10.248C76.8851 10.4482 76.9949 10.7021 76.9949 11.0098C76.9949 11.3174 76.8851 11.5713 76.6654 11.7715C76.4505 11.9717 76.1649 12.0718 75.8084 12.0718C75.4471 12.0718 75.159 11.9717 74.9442 11.7715C74.7293 11.5713 74.6219 11.3174 74.6219 11.0098Z" fill="#0F1418"/>
<path d="M102 0H5C2.23858 0 0 2.23858 0 5V27C0 29.7614 2.23858 32 5 32H102C104.761 32 107 29.7614 107 27V5C107 2.23858 104.761 0 102 0Z" fill="url(#paint4_linear_28_2)"/>
<defs>
<linearGradient id="paint0_linear_28_2" x1="450.854" y1="3.00037" x2="450.854" y2="1697.21" gradientUnits="userSpaceOnUse">
<stop stop-color="#73B723"/>
<stop offset="1" stop-color="#D8EE61"/>
</linearGradient>
<linearGradient id="paint1_linear_28_2" x1="757.898" y1="340.058" x2="-81.9045" y2="960.336" gradientUnits="userSpaceOnUse">
<stop stop-color="#98C9EA"/>
<stop offset="0.68865" stop-color="#026FB2"/>
<stop offset="1" stop-color="#086EB6"/>
</linearGradient>
<linearGradient id="paint2_linear_28_2" x1="3.01197" y1="81.8456" x2="1092.15" y2="1047.37" gradientUnits="userSpaceOnUse">
<stop stop-color="#D73721"/>
<stop offset="1" stop-color="#F7D768"/>
</linearGradient>
<linearGradient id="paint3_linear_28_2" x1="140.821" y1="297.052" x2="495.188" y2="437.254" gradientUnits="userSpaceOnUse">
<stop stop-color="#D4C883"/>
<stop offset="1" stop-color="#A1D1A7"/>
</linearGradient>
<linearGradient id="paint4_linear_28_2" x1="0" y1="0" x2="0" y2="32" gradientUnits="userSpaceOnUse">
<stop stop-color="#BBBBBB" stop-opacity="0.1"/>
<stop offset="1" stop-opacity="0.1"/>
</linearGradient>
<clipPath id="clip0_28_2">
<rect width="24" height="26" fill="white" transform="translate(3 3)"/>
</clipPath>
</defs>
</svg>
