<svg width="127" height="32" viewBox="0 0 127 32" fill="none" xmlns="http://www.w3.org/2000/svg">
<path d="M122 0H31V32H122C124.761 32 127 29.7614 127 27V5C127 2.23858 124.761 0 122 0Z" fill="white"/>
<path d="M31 0H5C2.23858 0 0 2.23858 0 5V27C0 29.7614 2.23858 32 5 32H31V0Z" fill="#563D7C"/>
<g clip-path="url(#clip0_18_315)">
<path d="M4 24.9054C4 26.6147 5.38553 28 7.09459 28H24.9053C26.6147 28 28 26.6145 28 24.9054V7.09469C28 5.38534 26.6145 4 24.9054 4H7.09469C5.38534 4 4 5.38553 4 7.09459V24.9053V24.9054Z" fill="#563D7C"/>
<path d="M13.9524 14.6161V11.2173H16.944C17.229 11.2173 17.5037 11.2411 17.7683 11.2886C18.0328 11.336 18.2669 11.4208 18.4705 11.5429C18.6739 11.6651 18.8367 11.8347 18.9589 12.0517C19.081 12.2688 19.1421 12.547 19.1421 12.8861C19.1421 13.4967 18.9589 13.9377 18.5925 14.209C18.2262 14.4804 17.7581 14.6161 17.1882 14.6161H13.9524ZM10.7571 8.73438V23.2656H17.7988C18.4501 23.2656 19.0844 23.1843 19.7018 23.0214C20.3191 22.8586 20.8686 22.6076 21.3503 22.2684C21.8319 21.9292 22.2152 21.4916 22.5001 20.9557C22.7851 20.4197 22.9275 19.7854 22.9275 19.0528C22.9275 18.1437 22.707 17.367 22.2661 16.7225C21.8251 16.078 21.1569 15.6269 20.2614 15.3691C20.9126 15.0571 21.4045 14.6567 21.737 14.1683C22.0693 13.6799 22.2355 13.0694 22.2355 12.3366C22.2355 11.6583 22.1236 11.0884 21.8997 10.6271C21.6759 10.1658 21.3604 9.79609 20.9533 9.51794C20.5464 9.23978 20.0579 9.03962 19.488 8.91756C18.9182 8.79541 18.2873 8.73438 17.5953 8.73438H10.7571ZM13.9524 20.7827V16.7937H17.4325C18.1244 16.7937 18.6807 16.9531 19.1014 17.272C19.522 17.5908 19.7323 18.1233 19.7323 18.8696C19.7323 19.2496 19.6678 19.5616 19.5389 19.8058C19.41 20.05 19.2371 20.2434 19.0199 20.3858C18.8029 20.5283 18.5518 20.63 18.2669 20.6912C17.9819 20.7521 17.6835 20.7827 17.3714 20.7827H13.9524Z" fill="white"/>
</g>
<path d="M50.3601 17.3198H47.6208L47.6062 15.811H49.906C50.3112 15.811 50.6433 15.7598 50.9021 15.6572C51.1609 15.5498 51.3537 15.396 51.4807 15.1958C51.6125 14.9907 51.6784 14.7417 51.6784 14.4487C51.6784 14.1167 51.615 13.8481 51.488 13.6431C51.3659 13.438 51.1731 13.2891 50.9094 13.1963C50.6506 13.1035 50.3161 13.0571 49.906 13.0571H48.3825V22H46.1853V11.3359H49.906C50.5261 11.3359 51.0803 11.3945 51.5686 11.5117C52.0617 11.6289 52.4792 11.8071 52.821 12.0464C53.1628 12.2856 53.424 12.5884 53.6047 12.9546C53.7854 13.3159 53.8757 13.7456 53.8757 14.2437C53.8757 14.6831 53.7756 15.0884 53.5754 15.4595C53.3801 15.8306 53.07 16.1333 52.6452 16.3677C52.2253 16.6021 51.676 16.7314 50.9973 16.7559L50.3601 17.3198ZM50.2649 22H47.0202L47.8772 20.2861H50.2649C50.6506 20.2861 50.9655 20.2251 51.2097 20.103C51.4538 19.9761 51.6345 19.8052 51.7517 19.5903C51.8689 19.3755 51.9275 19.1289 51.9275 18.8506C51.9275 18.5381 51.8737 18.2671 51.7663 18.0376C51.6638 17.8081 51.4978 17.6323 51.2683 17.5103C51.0388 17.3833 50.7361 17.3198 50.3601 17.3198H48.2434L48.258 15.811H50.8947L51.4001 16.4043C52.0495 16.3945 52.572 16.5093 52.9675 16.7485C53.3679 16.9829 53.6584 17.2881 53.8391 17.6641C54.0246 18.04 54.1174 18.4429 54.1174 18.8726C54.1174 19.5562 53.9685 20.1323 53.6706 20.6011C53.3728 21.0649 52.9358 21.4141 52.3596 21.6484C51.7883 21.8828 51.0901 22 50.2649 22ZM55.4766 18.1182V17.9644C55.4766 17.3833 55.5596 16.8486 55.7256 16.3604C55.8916 15.8672 56.1333 15.4399 56.4507 15.0786C56.7681 14.7173 57.1587 14.4365 57.6226 14.2363C58.0865 14.0312 58.6187 13.9287 59.2193 13.9287C59.8199 13.9287 60.3545 14.0312 60.8233 14.2363C61.292 14.4365 61.6851 14.7173 62.0025 15.0786C62.3247 15.4399 62.5689 15.8672 62.7349 16.3604C62.9009 16.8486 62.9839 17.3833 62.9839 17.9644V18.1182C62.9839 18.6943 62.9009 19.229 62.7349 19.7222C62.5689 20.2104 62.3247 20.6377 62.0025 21.0039C61.6851 21.3652 61.2945 21.646 60.8306 21.8462C60.3667 22.0464 59.8345 22.1465 59.2339 22.1465C58.6333 22.1465 58.0987 22.0464 57.6299 21.8462C57.1661 21.646 56.773 21.3652 56.4507 21.0039C56.1333 20.6377 55.8916 20.2104 55.7256 19.7222C55.5596 19.229 55.4766 18.6943 55.4766 18.1182ZM57.586 17.9644V18.1182C57.586 18.4502 57.6153 18.7603 57.6739 19.0483C57.7325 19.3364 57.8252 19.5903 57.9522 19.8101C58.084 20.0249 58.2549 20.1934 58.4649 20.3154C58.6748 20.4375 58.9312 20.4985 59.2339 20.4985C59.5269 20.4985 59.7784 20.4375 59.9883 20.3154C60.1983 20.1934 60.3667 20.0249 60.4937 19.8101C60.6206 19.5903 60.7134 19.3364 60.772 19.0483C60.8355 18.7603 60.8672 18.4502 60.8672 18.1182V17.9644C60.8672 17.6421 60.8355 17.3394 60.772 17.0562C60.7134 16.7681 60.6182 16.5142 60.4864 16.2944C60.3594 16.0698 60.191 15.894 59.981 15.7671C59.771 15.6401 59.5171 15.5767 59.2193 15.5767C58.9214 15.5767 58.6675 15.6401 58.4576 15.7671C58.2525 15.894 58.084 16.0698 57.9522 16.2944C57.8252 16.5142 57.7325 16.7681 57.6739 17.0562C57.6153 17.3394 57.586 17.6421 57.586 17.9644ZM64.1234 18.1182V17.9644C64.1234 17.3833 64.2064 16.8486 64.3724 16.3604C64.5384 15.8672 64.7801 15.4399 65.0975 15.0786C65.4149 14.7173 65.8055 14.4365 66.2694 14.2363C66.7333 14.0312 67.2655 13.9287 67.8661 13.9287C68.4667 13.9287 69.0013 14.0312 69.4701 14.2363C69.9388 14.4365 70.3319 14.7173 70.6493 15.0786C70.9715 15.4399 71.2157 15.8672 71.3817 16.3604C71.5477 16.8486 71.6307 17.3833 71.6307 17.9644V18.1182C71.6307 18.6943 71.5477 19.229 71.3817 19.7222C71.2157 20.2104 70.9715 20.6377 70.6493 21.0039C70.3319 21.3652 69.9413 21.646 69.4774 21.8462C69.0135 22.0464 68.4813 22.1465 67.8807 22.1465C67.2801 22.1465 66.7455 22.0464 66.2767 21.8462C65.8129 21.646 65.4198 21.3652 65.0975 21.0039C64.7801 20.6377 64.5384 20.2104 64.3724 19.7222C64.2064 19.229 64.1234 18.6943 64.1234 18.1182ZM66.2328 17.9644V18.1182C66.2328 18.4502 66.2621 18.7603 66.3207 19.0483C66.3793 19.3364 66.472 19.5903 66.599 19.8101C66.7308 20.0249 66.9017 20.1934 67.1117 20.3154C67.3216 20.4375 67.578 20.4985 67.8807 20.4985C68.1737 20.4985 68.4252 20.4375 68.6351 20.3154C68.8451 20.1934 69.0135 20.0249 69.1405 19.8101C69.2674 19.5903 69.3602 19.3364 69.4188 19.0483C69.4823 18.7603 69.514 18.4502 69.514 18.1182V17.9644C69.514 17.6421 69.4823 17.3394 69.4188 17.0562C69.3602 16.7681 69.265 16.5142 69.1332 16.2944C69.0062 16.0698 68.8378 15.894 68.6278 15.7671C68.4178 15.6401 68.1639 15.5767 67.8661 15.5767C67.5682 15.5767 67.3143 15.6401 67.1044 15.7671C66.8993 15.894 66.7308 16.0698 66.599 16.2944C66.472 16.5142 66.3793 16.7681 66.3207 17.0562C66.2621 17.3394 66.2328 17.6421 66.2328 17.9644ZM76.9889 14.0752V15.5693H72.3747V14.0752H76.9889ZM73.5173 12.1196H75.6266V19.6123C75.6266 19.8418 75.6559 20.0176 75.7145 20.1396C75.778 20.2617 75.8708 20.3472 75.9929 20.396C76.1149 20.4399 76.2687 20.4619 76.4543 20.4619C76.5861 20.4619 76.7033 20.457 76.8058 20.4473C76.9133 20.4326 77.0036 20.418 77.0768 20.4033L77.0842 21.9561C76.9035 22.0146 76.7082 22.061 76.4982 22.0952C76.2883 22.1294 76.0563 22.1465 75.8024 22.1465C75.3386 22.1465 74.9333 22.0708 74.5866 21.9194C74.2448 21.7632 73.9811 21.5142 73.7956 21.1724C73.61 20.8306 73.5173 20.3813 73.5173 19.8247V12.1196ZM82.6548 19.8101C82.6548 19.6587 82.6108 19.522 82.5229 19.3999C82.4351 19.2778 82.2715 19.1655 82.0322 19.063C81.7979 18.9556 81.4585 18.8579 81.0142 18.77C80.6138 18.6821 80.2402 18.5723 79.8936 18.4404C79.5518 18.3037 79.2539 18.1401 79 17.9497C78.751 17.7593 78.5557 17.5347 78.4141 17.2759C78.2725 17.0122 78.2017 16.7119 78.2017 16.375C78.2017 16.043 78.2725 15.7305 78.4141 15.4375C78.5605 15.1445 78.7681 14.8857 79.0366 14.6611C79.3101 14.4316 79.6421 14.2534 80.0327 14.1265C80.4282 13.9946 80.8726 13.9287 81.3657 13.9287C82.0542 13.9287 82.645 14.0386 83.1382 14.2583C83.6362 14.478 84.0171 14.7808 84.2808 15.1665C84.5493 15.5474 84.6836 15.9819 84.6836 16.4702H82.5742C82.5742 16.2651 82.5303 16.082 82.4424 15.9209C82.3594 15.7549 82.2275 15.6255 82.0469 15.5327C81.8711 15.4351 81.6416 15.3862 81.3584 15.3862C81.124 15.3862 80.9214 15.4277 80.7505 15.5107C80.5796 15.5889 80.4478 15.6963 80.355 15.833C80.2671 15.9648 80.2231 16.1113 80.2231 16.2725C80.2231 16.3945 80.2476 16.5044 80.2964 16.6021C80.3501 16.6948 80.4355 16.7803 80.5527 16.8584C80.6699 16.9365 80.8213 17.0098 81.0068 17.0781C81.1973 17.1416 81.4316 17.2002 81.71 17.2539C82.2812 17.3711 82.7915 17.5249 83.2407 17.7153C83.6899 17.9009 84.0464 18.1548 84.3101 18.4771C84.5737 18.7944 84.7056 19.2119 84.7056 19.7295C84.7056 20.0811 84.6274 20.4033 84.4712 20.6963C84.3149 20.9893 84.0903 21.2456 83.7974 21.4653C83.5044 21.6802 83.1528 21.8486 82.7427 21.9707C82.3374 22.0879 81.8809 22.1465 81.373 22.1465C80.6357 22.1465 80.0107 22.0146 79.498 21.751C78.9902 21.4873 78.6045 21.1528 78.3408 20.7476C78.082 20.3374 77.9526 19.9175 77.9526 19.4878H79.9521C79.9619 19.7759 80.0352 20.0078 80.1719 20.1836C80.3135 20.3594 80.4917 20.4863 80.7065 20.5645C80.9263 20.6426 81.1631 20.6816 81.417 20.6816C81.6904 20.6816 81.9175 20.645 82.0981 20.5718C82.2788 20.4937 82.4155 20.3911 82.5083 20.2642C82.606 20.1323 82.6548 19.981 82.6548 19.8101ZM90.137 14.0752V15.5693H85.5228V14.0752H90.137ZM86.6654 12.1196H88.7747V19.6123C88.7747 19.8418 88.804 20.0176 88.8626 20.1396C88.9261 20.2617 89.0189 20.3472 89.1409 20.396C89.263 20.4399 89.4168 20.4619 89.6024 20.4619C89.7342 20.4619 89.8514 20.457 89.9539 20.4473C90.0613 20.4326 90.1517 20.418 90.2249 20.4033L90.2322 21.9561C90.0516 22.0146 89.8563 22.061 89.6463 22.0952C89.4363 22.1294 89.2044 22.1465 88.9505 22.1465C88.4866 22.1465 88.0814 22.0708 87.7347 21.9194C87.3929 21.7632 87.1292 21.5142 86.9437 21.1724C86.7581 20.8306 86.6654 20.3813 86.6654 19.8247V12.1196ZM93.6276 15.8037V22H91.5182V14.0752H93.5031L93.6276 15.8037ZM96.0153 14.0239L95.9787 15.9795C95.8761 15.9648 95.7516 15.9526 95.6051 15.9429C95.4635 15.9282 95.3341 15.9209 95.2169 15.9209C94.9191 15.9209 94.6603 15.96 94.4406 16.0381C94.2257 16.1113 94.0451 16.2212 93.8986 16.3677C93.757 16.5142 93.6496 16.6924 93.5763 16.9023C93.5079 17.1123 93.4689 17.3516 93.4591 17.6201L93.0343 17.4883C93.0343 16.9756 93.0856 16.5044 93.1881 16.0747C93.2907 15.6401 93.4396 15.2617 93.6349 14.9395C93.8351 14.6172 94.0792 14.3682 94.3673 14.1924C94.6554 14.0166 94.985 13.9287 95.3561 13.9287C95.4733 13.9287 95.5929 13.9385 95.715 13.958C95.8371 13.9727 95.9371 13.9946 96.0153 14.0239ZM101.22 20.2129V16.6826C101.22 16.4287 101.178 16.2114 101.095 16.0308C101.012 15.8452 100.883 15.7012 100.707 15.5986C100.536 15.4961 100.314 15.4448 100.04 15.4448C99.8061 15.4448 99.6035 15.4863 99.4326 15.5693C99.2617 15.6475 99.1298 15.7622 99.0371 15.9136C98.9443 16.0601 98.8979 16.2334 98.8979 16.4336H96.7885C96.7885 16.0967 96.8667 15.7769 97.0229 15.4741C97.1792 15.1714 97.4062 14.9053 97.7041 14.6758C98.0019 14.4414 98.3559 14.2583 98.7661 14.1265C99.1811 13.9946 99.645 13.9287 100.158 13.9287C100.773 13.9287 101.32 14.0312 101.798 14.2363C102.277 14.4414 102.653 14.749 102.926 15.1592C103.205 15.5693 103.344 16.082 103.344 16.6973V20.0884C103.344 20.5229 103.371 20.8794 103.424 21.1577C103.478 21.4312 103.556 21.6704 103.659 21.8755V22H101.527C101.425 21.7852 101.347 21.5166 101.293 21.1943C101.244 20.8672 101.22 20.54 101.22 20.2129ZM101.498 17.1733L101.513 18.3672H100.333C100.055 18.3672 99.8134 18.3989 99.6084 18.4624C99.4033 18.5259 99.2348 18.6162 99.103 18.7334C98.9711 18.8457 98.8735 18.9775 98.81 19.1289C98.7514 19.2803 98.7221 19.4463 98.7221 19.627C98.7221 19.8076 98.7636 19.9712 98.8466 20.1177C98.9296 20.2593 99.0493 20.3716 99.2055 20.4546C99.3618 20.5327 99.5449 20.5718 99.7548 20.5718C100.072 20.5718 100.348 20.5083 100.582 20.3813C100.817 20.2544 100.998 20.0981 101.124 19.9126C101.256 19.7271 101.325 19.5513 101.33 19.3853L101.886 20.2788C101.808 20.479 101.701 20.6865 101.564 20.9014C101.432 21.1162 101.264 21.3188 101.059 21.5093C100.853 21.6948 100.607 21.8486 100.319 21.9707C100.031 22.0879 99.6889 22.1465 99.2934 22.1465C98.7905 22.1465 98.3339 22.0464 97.9238 21.8462C97.5185 21.6411 97.1962 21.3604 96.957 21.0039C96.7226 20.6426 96.6054 20.2324 96.6054 19.7734C96.6054 19.3584 96.6836 18.9897 96.8398 18.6675C96.9961 18.3452 97.2255 18.0742 97.5283 17.8545C97.8359 17.6299 98.2192 17.4614 98.6782 17.3491C99.1372 17.2319 99.6694 17.1733 100.275 17.1733H101.498ZM107.259 15.5986V25.0469H105.15V14.0752H107.105L107.259 15.5986ZM112.276 17.9497V18.1035C112.276 18.6797 112.208 19.2144 112.071 19.7075C111.939 20.2007 111.744 20.6304 111.485 20.9966C111.226 21.3579 110.904 21.6411 110.518 21.8462C110.137 22.0464 109.698 22.1465 109.2 22.1465C108.717 22.1465 108.297 22.0488 107.94 21.8535C107.584 21.6582 107.283 21.3848 107.039 21.0332C106.8 20.6768 106.607 20.2642 106.461 19.7954C106.314 19.3267 106.202 18.8237 106.124 18.2866V17.8838C106.202 17.3076 106.314 16.7803 106.461 16.3018C106.607 15.8184 106.8 15.4009 107.039 15.0493C107.283 14.6929 107.581 14.417 107.933 14.2217C108.289 14.0264 108.707 13.9287 109.185 13.9287C109.688 13.9287 110.13 14.0239 110.511 14.2144C110.897 14.4048 111.219 14.6782 111.478 15.0347C111.741 15.3911 111.939 15.8159 112.071 16.3091C112.208 16.8022 112.276 17.3491 112.276 17.9497ZM110.159 18.1035V17.9497C110.159 17.6128 110.13 17.3027 110.072 17.0195C110.018 16.7314 109.93 16.48 109.808 16.2651C109.691 16.0503 109.534 15.8843 109.339 15.7671C109.149 15.645 108.917 15.584 108.643 15.584C108.355 15.584 108.109 15.6304 107.904 15.7231C107.703 15.8159 107.54 15.9502 107.413 16.126C107.286 16.3018 107.191 16.5117 107.127 16.7559C107.064 17 107.025 17.2759 107.01 17.5835V18.6016C107.034 18.9629 107.103 19.2876 107.215 19.5757C107.327 19.8589 107.501 20.0835 107.735 20.2495C107.97 20.4155 108.277 20.4985 108.658 20.4985C108.936 20.4985 109.171 20.4375 109.361 20.3154C109.552 20.1885 109.705 20.0151 109.823 19.7954C109.945 19.5757 110.03 19.3218 110.079 19.0337C110.133 18.7456 110.159 18.4355 110.159 18.1035Z" fill="#0F1418"/>
<path d="M122 0H5C2.23858 0 0 2.23858 0 5V27C0 29.7614 2.23857 32 5 32H122C124.761 32 127 29.7614 127 27V5C127 2.23858 124.761 0 122 0Z" fill="url(#paint0_linear_18_315)"/>
<defs>
<linearGradient id="paint0_linear_18_315" x1="0" y1="0" x2="0" y2="32" gradientUnits="userSpaceOnUse">
<stop stop-color="#BBBBBB" stop-opacity="0.1"/>
<stop offset="1" stop-opacity="0.1"/>
</linearGradient>
<clipPath id="clip0_18_315">
<rect width="24" height="24" fill="white" transform="translate(4 4)"/>
</clipPath>
</defs>
</svg>
