<svg width="86" height="32" viewBox="0 0 86 32" fill="none" xmlns="http://www.w3.org/2000/svg">
<path d="M81 0H31V32H81C83.7614 32 86 29.7614 86 27V5C86 2.23858 83.7614 0 81 0Z" fill="white"/>
<path d="M31 0H5C2.23858 0 0 2.23858 0 5V27C0 29.7614 2.23858 32 5 32H31V0Z" fill="#CC6C9C"/>
<path d="M25.6604 17.5951C24.8212 17.6 24.0946 17.8067 23.4851 18.1144C23.2602 17.6577 23.0351 17.2585 22.9976 16.9605C22.9554 16.6143 22.9039 16.4027 22.9554 15.9893C23.0069 15.5757 23.2413 14.9891 23.2413 14.9411C23.2366 14.8978 23.1897 14.6862 22.7069 14.6814C22.2241 14.6766 21.8068 14.7776 21.76 14.9074C21.7131 15.0372 21.6194 15.3353 21.5584 15.643C21.474 16.095 20.5927 17.6961 20.0911 18.5375C19.927 18.2106 19.7864 17.9221 19.7582 17.6912C19.7161 17.3451 19.6645 17.1335 19.7161 16.7201C19.7676 16.3065 20.0021 15.7199 20.0021 15.6719C19.9974 15.6286 19.9505 15.417 19.4677 15.4122C18.9848 15.4074 18.5676 15.5084 18.5207 15.6382C18.4738 15.768 18.4223 16.0758 18.3192 16.3739C18.2207 16.672 17.0486 19.3453 16.744 20.0424C16.5893 20.3982 16.4534 20.6819 16.3549 20.8743C16.2564 21.0666 16.3502 20.8887 16.3407 20.9079C16.2564 21.0714 16.2096 21.1628 16.2096 21.1628V21.1676C16.1439 21.2878 16.0736 21.4032 16.0407 21.4032C16.0173 21.4032 15.9704 21.081 16.05 20.6387C16.2235 19.7107 16.6455 18.2635 16.6408 18.2106C16.6408 18.1866 16.7204 17.9317 16.3689 17.8019C16.0267 17.6721 15.9048 17.8885 15.8767 17.8885C15.8485 17.8885 15.8251 17.9654 15.8251 17.9654C15.8251 17.9654 16.2048 16.3355 15.0984 16.3355C14.4046 16.3355 13.4483 17.1096 12.9748 17.8164C12.6748 17.9847 12.0373 18.3404 11.3622 18.7203C11.1043 18.8646 10.8371 19.0185 10.584 19.1578L10.5325 19.1001C9.19172 17.6336 6.71182 16.5951 6.81496 14.6237C6.85246 13.9073 7.09623 12.0177 11.5779 9.72906C15.2486 7.85389 18.1879 8.36836 18.6988 9.51269C19.4254 11.1474 17.1284 14.1862 13.3124 14.6237C11.8592 14.792 11.095 14.215 10.9029 13.9987C10.7013 13.7727 10.6731 13.763 10.5981 13.8063C10.4763 13.8736 10.5513 14.0756 10.5981 14.1958C10.7107 14.4987 11.1794 15.0372 11.9764 15.3064C12.6748 15.542 14.3812 15.6719 16.4439 14.8545C18.7551 13.9361 20.5599 11.3878 20.0302 9.25786C19.4911 7.0894 15.9846 6.3778 12.6702 7.58464C10.6965 8.30585 8.55886 9.43095 7.02122 10.907C5.19294 12.6572 4.90229 14.1862 5.02417 14.8209C5.45082 17.0855 8.49322 18.5616 9.71208 19.653C9.65114 19.6866 9.59488 19.7202 9.54331 19.7491C8.93389 20.0568 6.61338 21.3022 6.03208 22.6195C5.37577 24.11 6.13521 25.1823 6.6415 25.3266C8.20726 25.7737 9.81053 24.9708 10.6778 23.6485C11.5403 22.3263 11.4372 20.6098 11.0388 19.8261L11.0246 19.7972L11.5028 19.5087C11.8123 19.3212 12.117 19.1482 12.3842 18.9991C12.2342 19.4173 12.1263 19.9126 12.0701 20.6338C12.0045 21.4801 12.342 22.5763 12.7873 23.009C12.9842 23.1965 13.2186 23.2014 13.3639 23.2014C13.8796 23.2014 14.114 22.7637 14.3718 22.2397C14.6906 21.6002 14.9719 20.8598 14.9719 20.8598C14.9719 20.8598 14.6203 22.8648 15.5814 22.8648C15.9329 22.8648 16.2845 22.3984 16.4439 22.1579V22.1628C16.4439 22.1628 16.4533 22.1483 16.472 22.1147C16.4917 22.0849 16.5105 22.0544 16.5283 22.0234V22.0137C16.6689 21.7637 16.983 21.1916 17.4519 20.2444C18.0565 19.0232 18.6378 17.4941 18.6378 17.4941C18.6378 17.4941 18.6941 17.8692 18.8675 18.4846C18.9706 18.8501 19.1957 19.2492 19.3692 19.6385C19.2285 19.8405 19.1441 19.9559 19.1441 19.9559L19.1488 19.9607C19.0364 20.1146 18.9097 20.2781 18.7785 20.4416C18.3003 21.0282 17.7284 21.6965 17.6534 21.8888C17.5643 22.1148 17.583 22.2831 17.7565 22.4178C17.8831 22.5139 18.1081 22.5331 18.3472 22.5139C18.7785 22.485 19.0785 22.3745 19.2286 22.3071C19.4629 22.2206 19.7301 22.0907 19.9879 21.8984C20.4567 21.5426 20.7427 21.0379 20.7146 20.3647C20.7005 19.9945 20.5833 19.629 20.438 19.2828C20.4802 19.2203 20.5225 19.1578 20.5646 19.0906C21.3053 17.9798 21.8772 16.7586 21.8772 16.7586C21.8772 16.7586 21.9334 17.1336 22.1069 17.7491C22.196 18.0616 22.3741 18.403 22.5335 18.7396C21.8397 19.3213 21.4037 19.9945 21.2537 20.4369C20.9771 21.2542 21.1928 21.6244 21.6006 21.711C21.7834 21.7494 22.0459 21.6629 22.2428 21.5763C22.4866 21.4946 22.7819 21.3551 23.0538 21.1485C23.5226 20.7927 23.9727 20.2974 23.9492 19.6291C23.9352 19.3213 23.8555 19.0185 23.7477 18.73C24.3383 18.48 25.1024 18.3357 26.0728 18.4559C28.159 18.706 28.5716 20.0426 28.4919 20.6004C28.4122 21.1581 27.9762 21.4658 27.8308 21.5619C27.6855 21.6533 27.6386 21.687 27.6527 21.7543C27.6715 21.8553 27.7371 21.8504 27.8637 21.8312C28.0371 21.8023 28.9606 21.3744 28.9981 20.3456C29.0544 19.0232 27.8308 17.5807 25.6604 17.5951ZM9.57144 23.1581C8.88232 23.9322 7.91193 24.2255 7.49939 23.9754C7.05404 23.711 7.22744 22.5715 8.076 21.7493C8.59167 21.2493 9.26204 20.7877 9.70271 20.504C9.80115 20.4415 9.95116 20.3502 10.1293 20.2396C10.1574 20.2204 10.1762 20.2107 10.1762 20.2107C10.209 20.1915 10.2465 20.1675 10.284 20.1434C10.5981 21.3166 10.2981 22.3455 9.57144 23.1581ZM14.6109 19.6433C14.3718 20.2444 13.8656 21.7878 13.5608 21.7012C13.2983 21.6291 13.139 20.4608 13.5092 19.3068C13.6967 18.725 14.0953 18.0326 14.3296 17.7633C14.7094 17.3306 15.1219 17.1864 15.225 17.3642C15.347 17.5951 14.7609 19.2684 14.6109 19.6433ZM18.7691 21.682C18.666 21.7349 18.5722 21.7733 18.53 21.7445C18.4972 21.7253 18.5722 21.6532 18.5722 21.6532C18.5722 21.6532 19.0925 21.0811 19.2988 20.8166C19.416 20.6628 19.5566 20.4849 19.7067 20.2829V20.3406C19.7067 21.0329 19.0598 21.4945 18.7691 21.682ZM21.9756 20.932C21.9005 20.8743 21.9101 20.6964 22.1631 20.1386C22.2616 19.9174 22.4866 19.5472 22.8757 19.1963C22.9226 19.3404 22.9507 19.4798 22.946 19.6097C22.9413 20.4752 22.3413 20.7973 21.9756 20.932Z" fill="white"/>
<path d="M48.3936 18.2095C48.3936 18.019 48.3643 17.8481 48.3057 17.6968C48.252 17.5405 48.1494 17.3989 47.9981 17.272C47.8467 17.1401 47.6343 17.0107 47.3609 16.8838C47.0874 16.7568 46.7334 16.625 46.2988 16.4883C45.8154 16.332 45.3565 16.1562 44.9219 15.9609C44.4922 15.7656 44.1113 15.5386 43.7793 15.2798C43.4522 15.0161 43.1934 14.7109 43.0029 14.3643C42.8174 14.0176 42.7246 13.6147 42.7246 13.1558C42.7246 12.7114 42.8223 12.3086 43.0176 11.9473C43.2129 11.5811 43.4863 11.2686 43.8379 11.0098C44.1895 10.7461 44.6045 10.5435 45.083 10.4019C45.5664 10.2603 46.0962 10.1895 46.6724 10.1895C47.4585 10.1895 48.1446 10.3311 48.7305 10.6143C49.3164 10.8975 49.7705 11.2856 50.0928 11.7788C50.4199 12.272 50.5835 12.8359 50.5835 13.4707H48.4009C48.4009 13.1582 48.335 12.8848 48.2031 12.6504C48.0762 12.4111 47.8809 12.2231 47.6172 12.0864C47.3584 11.9497 47.0313 11.8813 46.6358 11.8813C46.2549 11.8813 45.9375 11.9399 45.6836 12.0571C45.4297 12.1694 45.2393 12.3232 45.1123 12.5186C44.9854 12.709 44.9219 12.9238 44.9219 13.1631C44.9219 13.3438 44.9658 13.5073 45.0537 13.6538C45.1465 13.8003 45.2832 13.937 45.4639 14.064C45.6446 14.1909 45.8667 14.3105 46.1304 14.4229C46.3941 14.5352 46.6992 14.645 47.0459 14.7524C47.627 14.9282 48.1372 15.126 48.5767 15.3457C49.021 15.5654 49.3921 15.812 49.69 16.0854C49.9878 16.3589 50.2124 16.6689 50.3638 17.0156C50.5152 17.3623 50.5908 17.7554 50.5908 18.1948C50.5908 18.6587 50.5005 19.0737 50.3198 19.4399C50.1392 19.8062 49.8779 20.1162 49.5362 20.3701C49.1944 20.624 48.7866 20.8169 48.313 20.9487C47.8394 21.0806 47.3096 21.1465 46.7237 21.1465C46.1963 21.1465 45.6763 21.0781 45.1636 20.9414C44.6509 20.7998 44.1846 20.5874 43.7647 20.3042C43.3496 20.021 43.0176 19.6597 42.7686 19.2202C42.5196 18.7808 42.395 18.2607 42.395 17.6602H44.5996C44.5996 17.9922 44.6509 18.2729 44.7534 18.5024C44.856 18.7319 45 18.9175 45.1856 19.0591C45.376 19.2007 45.6006 19.3032 45.8594 19.3667C46.1231 19.4302 46.4112 19.4619 46.7237 19.4619C47.1045 19.4619 47.417 19.4082 47.6612 19.3008C47.9102 19.1934 48.0933 19.0444 48.2105 18.854C48.3325 18.6636 48.3936 18.4487 48.3936 18.2095ZM56.4105 19.2129V15.6826C56.4105 15.4287 56.369 15.2114 56.286 15.0308C56.203 14.8452 56.0736 14.7012 55.8978 14.5986C55.7269 14.4961 55.5047 14.4448 55.2313 14.4448C54.9969 14.4448 54.7943 14.4863 54.6234 14.5693C54.4525 14.6475 54.3206 14.7622 54.2279 14.9136C54.1351 15.0601 54.0887 15.2334 54.0887 15.4336H51.9793C51.9793 15.0967 52.0575 14.7769 52.2137 14.4741C52.37 14.1714 52.597 13.9053 52.8949 13.6758C53.1927 13.4414 53.5467 13.2583 53.9569 13.1265C54.3719 12.9946 54.8358 12.9287 55.3485 12.9287C55.9637 12.9287 56.5106 13.0312 56.9891 13.2363C57.4676 13.4414 57.8436 13.749 58.117 14.1592C58.3954 14.5693 58.5345 15.082 58.5345 15.6973V19.0884C58.5345 19.5229 58.5614 19.8794 58.6151 20.1577C58.6688 20.4312 58.7469 20.6704 58.8495 20.8755V21H56.7181C56.6156 20.7852 56.5374 20.5166 56.4837 20.1943C56.4349 19.8672 56.4105 19.54 56.4105 19.2129ZM56.6888 16.1733L56.7035 17.3672H55.5243C55.2459 17.3672 55.0042 17.3989 54.7992 17.4624C54.5941 17.5259 54.4256 17.6162 54.2938 17.7334C54.162 17.8457 54.0643 17.9775 54.0008 18.1289C53.9422 18.2803 53.9129 18.4463 53.9129 18.627C53.9129 18.8076 53.9544 18.9712 54.0374 19.1177C54.1204 19.2593 54.2401 19.3716 54.3963 19.4546C54.5526 19.5327 54.7357 19.5718 54.9456 19.5718C55.263 19.5718 55.5389 19.5083 55.7733 19.3813C56.0077 19.2544 56.1883 19.0981 56.3153 18.9126C56.4471 18.7271 56.5155 18.5513 56.5204 18.3853L57.077 19.2788C56.9989 19.479 56.8914 19.6865 56.7547 19.9014C56.6229 20.1162 56.4544 20.3188 56.2494 20.5093C56.0443 20.6948 55.7977 20.8486 55.5096 20.9707C55.2215 21.0879 54.8797 21.1465 54.4842 21.1465C53.9813 21.1465 53.5247 21.0464 53.1146 20.8462C52.7093 20.6411 52.3871 20.3604 52.1478 20.0039C51.9134 19.6426 51.7962 19.2324 51.7962 18.7734C51.7962 18.3584 51.8744 17.9897 52.0306 17.6675C52.1869 17.3452 52.4163 17.0742 52.7191 16.8545C53.0267 16.6299 53.41 16.4614 53.869 16.3491C54.328 16.2319 54.8602 16.1733 55.4657 16.1733H56.6888ZM64.6252 18.8101C64.6252 18.6587 64.5812 18.522 64.4933 18.3999C64.4054 18.2778 64.2419 18.1655 64.0026 18.063C63.7682 17.9556 63.4289 17.8579 62.9845 17.77C62.5841 17.6821 62.2106 17.5723 61.8639 17.4404C61.5221 17.3037 61.2243 17.1401 60.9704 16.9497C60.7213 16.7593 60.526 16.5347 60.3844 16.2759C60.2428 16.0122 60.172 15.7119 60.172 15.375C60.172 15.043 60.2428 14.7305 60.3844 14.4375C60.5309 14.1445 60.7384 13.8857 61.007 13.6611C61.2804 13.4316 61.6125 13.2534 62.0031 13.1265C62.3986 12.9946 62.8429 12.9287 63.3361 12.9287C64.0246 12.9287 64.6154 13.0386 65.1086 13.2583C65.6066 13.478 65.9875 13.7808 66.2511 14.1665C66.5197 14.5474 66.654 14.9819 66.654 15.4702H64.5446C64.5446 15.2651 64.5006 15.082 64.4128 14.9209C64.3297 14.7549 64.1979 14.6255 64.0172 14.5327C63.8415 14.4351 63.612 14.3862 63.3288 14.3862C63.0944 14.3862 62.8918 14.4277 62.7209 14.5107C62.55 14.5889 62.4181 14.6963 62.3254 14.833C62.2375 14.9648 62.1935 15.1113 62.1935 15.2725C62.1935 15.3945 62.2179 15.5044 62.2668 15.6021C62.3205 15.6948 62.4059 15.7803 62.5231 15.8584C62.6403 15.9365 62.7917 16.0098 62.9772 16.0781C63.1676 16.1416 63.402 16.2002 63.6803 16.2539C64.2516 16.3711 64.7619 16.5249 65.2111 16.7153C65.6603 16.9009 66.0168 17.1548 66.2804 17.4771C66.5441 17.7944 66.6759 18.2119 66.6759 18.7295C66.6759 19.0811 66.5978 19.4033 66.4416 19.6963C66.2853 19.9893 66.0607 20.2456 65.7677 20.4653C65.4748 20.6802 65.1232 20.8486 64.713 20.9707C64.3078 21.0879 63.8512 21.1465 63.3434 21.1465C62.6061 21.1465 61.9811 21.0146 61.4684 20.751C60.9606 20.4873 60.5749 20.1528 60.3112 19.7476C60.0524 19.3374 59.923 18.9175 59.923 18.4878H61.9225C61.9323 18.7759 62.0055 19.0078 62.1422 19.1836C62.2838 19.3594 62.4621 19.4863 62.6769 19.5645C62.8966 19.6426 63.1335 19.6816 63.3874 19.6816C63.6608 19.6816 63.8879 19.645 64.0685 19.5718C64.2492 19.4937 64.3859 19.3911 64.4787 19.2642C64.5763 19.1323 64.6252 18.981 64.6252 18.8101ZM72.5102 18.8101C72.5102 18.6587 72.4663 18.522 72.3784 18.3999C72.2905 18.2778 72.1269 18.1655 71.8877 18.063C71.6533 17.9556 71.3139 17.8579 70.8696 17.77C70.4692 17.6821 70.0957 17.5723 69.749 17.4404C69.4072 17.3037 69.1094 17.1401 68.8554 16.9497C68.6064 16.7593 68.4111 16.5347 68.2695 16.2759C68.1279 16.0122 68.0571 15.7119 68.0571 15.375C68.0571 15.043 68.1279 14.7305 68.2695 14.4375C68.416 14.1445 68.6235 13.8857 68.8921 13.6611C69.1655 13.4316 69.4975 13.2534 69.8882 13.1265C70.2837 12.9946 70.728 12.9287 71.2212 12.9287C71.9096 12.9287 72.5005 13.0386 72.9936 13.2583C73.4917 13.478 73.8725 13.7808 74.1362 14.1665C74.4048 14.5474 74.539 14.9819 74.539 15.4702H72.4297C72.4297 15.2651 72.3857 15.082 72.2978 14.9209C72.2148 14.7549 72.083 14.6255 71.9023 14.5327C71.7265 14.4351 71.4971 14.3862 71.2138 14.3862C70.9795 14.3862 70.7768 14.4277 70.6059 14.5107C70.435 14.5889 70.3032 14.6963 70.2104 14.833C70.1225 14.9648 70.0786 15.1113 70.0786 15.2725C70.0786 15.3945 70.103 15.5044 70.1518 15.6021C70.2055 15.6948 70.291 15.7803 70.4082 15.8584C70.5254 15.9365 70.6767 16.0098 70.8623 16.0781C71.0527 16.1416 71.2871 16.2002 71.5654 16.2539C72.1367 16.3711 72.647 16.5249 73.0962 16.7153C73.5454 16.9009 73.9018 17.1548 74.1655 17.4771C74.4292 17.7944 74.561 18.2119 74.561 18.7295C74.561 19.0811 74.4829 19.4033 74.3266 19.6963C74.1704 19.9893 73.9458 20.2456 73.6528 20.4653C73.3598 20.6802 73.0083 20.8486 72.5981 20.9707C72.1929 21.0879 71.7363 21.1465 71.2285 21.1465C70.4912 21.1465 69.8662 21.0146 69.3535 20.751C68.8457 20.4873 68.4599 20.1528 68.1963 19.7476C67.9375 19.3374 67.8081 18.9175 67.8081 18.4878H69.8076C69.8174 18.7759 69.8906 19.0078 70.0273 19.1836C70.1689 19.3594 70.3471 19.4863 70.562 19.5645C70.7817 19.6426 71.0185 19.6816 71.2724 19.6816C71.5459 19.6816 71.7729 19.645 71.9536 19.5718C72.1343 19.4937 72.271 19.3911 72.3638 19.2642C72.4614 19.1323 72.5102 18.981 72.5102 18.8101Z" fill="#0F1418"/>
<path d="M81 0H5C2.23858 0 0 2.23858 0 5V27C0 29.7614 2.23858 32 5 32H81C83.7614 32 86 29.7614 86 27V5C86 2.23858 83.7614 0 81 0Z" fill="url(#paint0_linear_17_75)"/>
<defs>
<linearGradient id="paint0_linear_17_75" x1="0" y1="0" x2="0" y2="32" gradientUnits="userSpaceOnUse">
<stop stop-color="#BBBBBB" stop-opacity="0.1"/>
<stop offset="1" stop-opacity="0.1"/>
</linearGradient>
</defs>
</svg>
