<svg width="99" height="32" viewBox="0 0 99 32" fill="none" xmlns="http://www.w3.org/2000/svg">
<path d="M94 0H31V32H94C96.7614 32 99 29.7614 99 27V5C99 2.23858 96.7614 0 94 0Z" fill="white"/>
<path d="M31 0H5C2.23858 0 0 2.23858 0 5V27C0 29.7614 2.23858 32 5 32H31V0Z" fill="#00C180"/>
<path d="M23.1196 6H19L16 10.7464L13.4286 6H4L16 26.5554L28 6H23.1196ZM6.98393 7.71429H9.86607L16 18.3321L22.1286 7.71429H25.0107L16 23.1536L6.98393 7.71429V7.71429Z" fill="#0F1418"/>
<path d="M48.3122 18.7734L50.8244 10.3359H53.2707L49.5573 21H47.946L48.3122 18.7734ZM45.9978 10.3359L48.5026 18.7734L48.8835 21H47.2575L43.5661 10.3359H45.9978ZM58.7974 19.103V13.0752H60.9068V21H58.9219L58.7974 19.103ZM59.0318 17.4771L59.6543 17.4624C59.6543 17.9897 59.5933 18.4805 59.4712 18.9346C59.3491 19.3838 59.166 19.7744 58.9219 20.1064C58.6778 20.4336 58.3701 20.6899 57.999 20.8755C57.6279 21.0562 57.1909 21.1465 56.688 21.1465C56.3023 21.1465 55.9458 21.0928 55.6187 20.9854C55.2964 20.873 55.0181 20.6997 54.7837 20.4653C54.5542 20.2261 54.3736 19.9209 54.2417 19.5498C54.1148 19.1738 54.0513 18.7222 54.0513 18.1948V13.0752H56.1607V18.2095C56.1607 18.4438 56.1875 18.6416 56.2412 18.8027C56.2998 18.9639 56.3804 19.0957 56.4829 19.1982C56.5855 19.3008 56.7051 19.374 56.8418 19.418C56.9834 19.4619 57.1397 19.4839 57.3106 19.4839C57.7451 19.4839 58.0869 19.396 58.336 19.2202C58.5899 19.0444 58.7681 18.8052 58.8706 18.5024C58.978 18.1948 59.0318 17.853 59.0318 17.4771ZM66.3455 21.1465C65.7303 21.1465 65.1786 21.0488 64.6903 20.8535C64.202 20.6533 63.787 20.3774 63.4452 20.0259C63.1082 19.6743 62.8495 19.2666 62.6688 18.8027C62.4881 18.334 62.3978 17.8359 62.3978 17.3086V17.0156C62.3978 16.415 62.4832 15.8657 62.6541 15.3677C62.825 14.8696 63.0692 14.4375 63.3866 14.0713C63.7088 13.7051 64.0995 13.4243 64.5584 13.229C65.0174 13.0288 65.535 12.9287 66.1112 12.9287C66.6727 12.9287 67.1707 13.0215 67.6053 13.207C68.0399 13.3926 68.4037 13.6562 68.6966 13.998C68.9945 14.3398 69.2191 14.75 69.3704 15.2285C69.5218 15.7021 69.5975 16.2295 69.5975 16.8105V17.6895H63.2987V16.2832H67.5247V16.1221C67.5247 15.8291 67.471 15.5679 67.3636 15.3384C67.2611 15.104 67.1048 14.9185 66.8949 14.7817C66.6849 14.645 66.4163 14.5767 66.0892 14.5767C65.8109 14.5767 65.5716 14.6377 65.3714 14.7598C65.1712 14.8818 65.0077 15.0527 64.8807 15.2725C64.7586 15.4922 64.6659 15.751 64.6024 16.0488C64.5438 16.3418 64.5145 16.6641 64.5145 17.0156V17.3086C64.5145 17.626 64.5584 17.9189 64.6463 18.1875C64.7391 18.4561 64.8685 18.688 65.0345 18.8833C65.2054 19.0786 65.4105 19.23 65.6497 19.3374C65.8939 19.4448 66.1698 19.4985 66.4774 19.4985C66.8582 19.4985 67.2122 19.4253 67.5394 19.2788C67.8714 19.1274 68.1571 18.9004 68.3963 18.5977L69.4217 19.7109C69.2557 19.9502 69.0287 20.1797 68.7406 20.3994C68.4574 20.6191 68.1156 20.7998 67.7152 20.9414C67.3148 21.0781 66.8582 21.1465 66.3455 21.1465ZM71.0812 19.9819C71.0812 19.6694 71.1886 19.4082 71.4035 19.1982C71.6232 18.9883 71.9137 18.8833 72.2751 18.8833C72.6364 18.8833 72.9245 18.9883 73.1393 19.1982C73.359 19.4082 73.4689 19.6694 73.4689 19.9819C73.4689 20.2944 73.359 20.5557 73.1393 20.7656C72.9245 20.9756 72.6364 21.0806 72.2751 21.0806C71.9137 21.0806 71.6232 20.9756 71.4035 20.7656C71.1886 20.5557 71.0812 20.2944 71.0812 19.9819ZM75.6264 13.0752H77.7431V21.4761C77.7431 22.062 77.6357 22.5576 77.4209 22.9629C77.206 23.3682 76.896 23.6758 76.4907 23.8857C76.0854 24.0957 75.5947 24.2007 75.0185 24.2007C74.8379 24.2007 74.6621 24.1909 74.4912 24.1714C74.3154 24.1519 74.1347 24.1201 73.9492 24.0762L73.9565 22.4575C74.0737 22.4771 74.1885 22.4917 74.3008 22.5015C74.4082 22.5161 74.518 22.5234 74.6303 22.5234C74.8501 22.5234 75.0332 22.4868 75.1797 22.4136C75.3261 22.3403 75.436 22.2256 75.5093 22.0693C75.5874 21.918 75.6264 21.7202 75.6264 21.4761V13.0752ZM75.458 11.0098C75.458 10.7021 75.5654 10.4482 75.7803 10.248C76 10.0479 76.2881 9.94775 76.6445 9.94775C77.0058 9.94775 77.2939 10.0479 77.5088 10.248C77.7236 10.4482 77.831 10.7021 77.831 11.0098C77.831 11.3174 77.7236 11.5713 77.5088 11.7715C77.2939 11.9717 77.0058 12.0718 76.6445 12.0718C76.2881 12.0718 76 11.9717 75.7803 11.7715C75.5654 11.5713 75.458 11.3174 75.458 11.0098ZM83.8851 18.8101C83.8851 18.6587 83.8411 18.522 83.7532 18.3999C83.6653 18.2778 83.5018 18.1655 83.2625 18.063C83.0281 17.9556 82.6888 17.8579 82.2444 17.77C81.844 17.6821 81.4705 17.5723 81.1238 17.4404C80.782 17.3037 80.4842 17.1401 80.2303 16.9497C79.9813 16.7593 79.7859 16.5347 79.6443 16.2759C79.5027 16.0122 79.4319 15.7119 79.4319 15.375C79.4319 15.043 79.5027 14.7305 79.6443 14.4375C79.7908 14.1445 79.9983 13.8857 80.2669 13.6611C80.5403 13.4316 80.8724 13.2534 81.263 13.1265C81.6585 12.9946 82.1028 12.9287 82.596 12.9287C83.2845 12.9287 83.8753 13.0386 84.3685 13.2583C84.8665 13.478 85.2474 13.7808 85.511 14.1665C85.7796 14.5474 85.9139 14.9819 85.9139 15.4702H83.8045C83.8045 15.2651 83.7605 15.082 83.6727 14.9209C83.5896 14.7549 83.4578 14.6255 83.2771 14.5327C83.1014 14.4351 82.8719 14.3862 82.5887 14.3862C82.3543 14.3862 82.1517 14.4277 81.9808 14.5107C81.8099 14.5889 81.678 14.6963 81.5853 14.833C81.4974 14.9648 81.4534 15.1113 81.4534 15.2725C81.4534 15.3945 81.4778 15.5044 81.5267 15.6021C81.5804 15.6948 81.6658 15.7803 81.783 15.8584C81.9002 15.9365 82.0516 16.0098 82.2371 16.0781C82.4275 16.1416 82.6619 16.2002 82.9402 16.2539C83.5115 16.3711 84.0218 16.5249 84.471 16.7153C84.9202 16.9009 85.2767 17.1548 85.5403 17.4771C85.804 17.7944 85.9358 18.2119 85.9358 18.7295C85.9358 19.0811 85.8577 19.4033 85.7015 19.6963C85.5452 19.9893 85.3206 20.2456 85.0276 20.4653C84.7347 20.6802 84.3831 20.8486 83.9729 20.9707C83.5677 21.0879 83.1111 21.1465 82.6033 21.1465C81.866 21.1465 81.241 21.0146 80.7283 20.751C80.2205 20.4873 79.8348 20.1528 79.5711 19.7476C79.3123 19.3374 79.1829 18.9175 79.1829 18.4878H81.1824C81.1922 18.7759 81.2654 19.0078 81.4021 19.1836C81.5438 19.3594 81.722 19.4863 81.9368 19.5645C82.1565 19.6426 82.3934 19.6816 82.6473 19.6816C82.9207 19.6816 83.1478 19.645 83.3284 19.5718C83.5091 19.4937 83.6458 19.3911 83.7386 19.2642C83.8362 19.1323 83.8851 18.981 83.8851 18.8101Z" fill="#0F1418"/>
<path d="M94 0H5C2.23858 0 0 2.23858 0 5V27C0 29.7614 2.23858 32 5 32H94C96.7614 32 99 29.7614 99 27V5C99 2.23858 96.7614 0 94 0Z" fill="url(#paint0_linear_14_459)"/>
<defs>
<linearGradient id="paint0_linear_14_459" x1="0" y1="0" x2="0" y2="32" gradientUnits="userSpaceOnUse">
<stop stop-color="#BBBBBB" stop-opacity="0.1"/>
<stop offset="1" stop-opacity="0.1"/>
</linearGradient>
</defs>
</svg>
