<svg width="87" height="32" viewBox="0 0 87 32" fill="none" xmlns="http://www.w3.org/2000/svg">
<path d="M82 0H31V32H82C84.7614 32 87 29.7614 87 27V5C87 2.23858 84.7614 0 82 0Z" fill="#BBBBBB"/>
<path d="M31 0H5C2.23858 0 0 2.23858 0 5V27C0 29.7614 2.23858 32 5 32H31V0Z" fill="#BBBBBB"/>
<g clip-path="url(#clip0_2_831)">
<path d="M12.344 21.7108C12.344 21.7108 11.4609 22.2478 12.9578 22.4015C14.7599 22.6312 15.7198 22.5932 17.7143 22.2098C18.1151 22.4552 18.539 22.6608 18.98 22.8236C14.4928 24.742 8.81456 22.7087 12.344 21.7108ZM11.7696 19.2174C11.7696 19.2174 10.8105 19.9461 12.3067 20.1004C14.2631 20.2921 15.7973 20.3302 18.4451 19.7939C18.7026 20.055 19.0179 20.252 19.3655 20.3689C13.9565 21.98 7.89559 20.5219 11.7696 19.2174ZM22.3572 23.5897C22.3572 23.5897 23.0091 24.1267 21.6285 24.5488C19.0583 25.317 10.8492 25.5468 8.54749 24.5488C7.74195 24.2042 9.2762 23.7053 9.768 23.6284C10.267 23.5136 10.5362 23.5136 10.5362 23.5136C9.65313 22.8997 4.66697 24.7793 8.00472 25.3156C17.1729 26.8118 24.7301 24.6637 22.3515 23.5897H22.3572ZM12.759 16.6083C12.759 16.6083 8.57764 17.6063 11.2628 17.9509C12.4136 18.1045 14.6766 18.0658 16.7867 17.9128C18.5126 17.7592 20.24 17.4534 20.24 17.4534C20.24 17.4534 19.6262 17.7219 19.204 17.9904C14.9466 19.1032 6.77487 18.6042 9.11538 17.4534C11.1098 16.4942 12.7597 16.6098 12.7597 16.6098L12.759 16.6083ZM20.24 20.7897C24.5362 18.564 22.5417 16.4174 21.1604 16.6852C20.8158 16.762 20.6614 16.8388 20.6614 16.8388C20.6614 16.8388 20.7763 16.609 21.0448 16.5322C23.7687 15.573 25.9168 19.409 20.1617 20.9045C20.1617 20.9045 20.1998 20.8665 20.2386 20.7897H20.24ZM13.1826 26.8506C17.3251 27.1191 23.6553 26.6969 23.8082 24.7398C23.8082 24.7398 23.5016 25.508 20.3944 26.0824C16.8649 26.7343 12.4919 26.6567 9.92164 26.236C9.92164 26.236 10.4587 26.6962 13.1826 26.8506Z" fill="#4E7896"/>
<path d="M17.6382 3.94946C17.6382 3.94946 20.0167 6.36608 15.3752 10.0104C11.6541 12.964 14.5316 14.6519 15.3752 16.5703C13.1883 14.6139 11.616 12.8872 12.6901 11.2768C14.2624 8.89757 18.5973 7.75387 17.6382 3.94946ZM16.4176 14.9592C17.5305 16.225 16.1111 17.3758 16.1111 17.3758C16.1111 17.3758 18.9498 15.9184 17.6453 14.1149C16.4564 12.3889 15.5346 11.5446 20.5222 8.66782C20.5222 8.66782 12.6585 10.6242 16.4176 14.9592Z" fill="#CB3837"/>
</g>
<path d="M48.0952 17.7261V10.3359H50.2852V17.7261C50.2852 18.439 50.1289 19.0518 49.8164 19.5645C49.5039 20.0723 49.0767 20.4629 48.5347 20.7363C47.9976 21.0098 47.3921 21.1465 46.7183 21.1465C46.02 21.1465 45.4024 21.0293 44.8653 20.7949C44.3281 20.5605 43.9058 20.2017 43.5982 19.7183C43.2905 19.23 43.1367 18.6123 43.1367 17.8652H45.3413C45.3413 18.2559 45.395 18.5659 45.5025 18.7954C45.6148 19.0249 45.7735 19.1885 45.9785 19.2861C46.1836 19.3838 46.4302 19.4326 46.7183 19.4326C46.9966 19.4326 47.2383 19.3667 47.4434 19.2349C47.6485 19.103 47.8071 18.9102 47.9195 18.6562C48.0366 18.4023 48.0952 18.0923 48.0952 17.7261ZM56.4857 19.2129V15.6826C56.4857 15.4287 56.4442 15.2114 56.3612 15.0308C56.2782 14.8452 56.1488 14.7012 55.973 14.5986C55.8021 14.4961 55.5799 14.4448 55.3065 14.4448C55.0721 14.4448 54.8695 14.4863 54.6986 14.5693C54.5277 14.6475 54.3958 14.7622 54.3031 14.9136C54.2103 15.0601 54.1639 15.2334 54.1639 15.4336H52.0545C52.0545 15.0967 52.1327 14.7769 52.2889 14.4741C52.4452 14.1714 52.6722 13.9053 52.9701 13.6758C53.2679 13.4414 53.6219 13.2583 54.0321 13.1265C54.4471 12.9946 54.911 12.9287 55.4237 12.9287C56.0389 12.9287 56.5858 13.0312 57.0643 13.2363C57.5428 13.4414 57.9188 13.749 58.1922 14.1592C58.4705 14.5693 58.6097 15.082 58.6097 15.6973V19.0884C58.6097 19.5229 58.6366 19.8794 58.6903 20.1577C58.744 20.4312 58.8221 20.6704 58.9246 20.8755V21H56.7933C56.6908 20.7852 56.6126 20.5166 56.5589 20.1943C56.5101 19.8672 56.4857 19.54 56.4857 19.2129ZM56.764 16.1733L56.7787 17.3672H55.5995C55.3211 17.3672 55.0794 17.3989 54.8744 17.4624C54.6693 17.5259 54.5008 17.6162 54.369 17.7334C54.2371 17.8457 54.1395 17.9775 54.076 18.1289C54.0174 18.2803 53.9881 18.4463 53.9881 18.627C53.9881 18.8076 54.0296 18.9712 54.1126 19.1177C54.1956 19.2593 54.3153 19.3716 54.4715 19.4546C54.6278 19.5327 54.8109 19.5718 55.0208 19.5718C55.3382 19.5718 55.6141 19.5083 55.8485 19.3813C56.0829 19.2544 56.2635 19.0981 56.3905 18.9126C56.5223 18.7271 56.5907 18.5513 56.5955 18.3853L57.1522 19.2788C57.0741 19.479 56.9666 19.6865 56.8299 19.9014C56.6981 20.1162 56.5296 20.3188 56.3246 20.5093C56.1195 20.6948 55.8729 20.8486 55.5848 20.9707C55.2967 21.0879 54.9549 21.1465 54.5594 21.1465C54.0565 21.1465 53.5999 21.0464 53.1898 20.8462C52.7845 20.6411 52.4622 20.3604 52.223 20.0039C51.9886 19.6426 51.8714 19.2324 51.8714 18.7734C51.8714 18.3584 51.9496 17.9897 52.1058 17.6675C52.2621 17.3452 52.4915 17.0742 52.7943 16.8545C53.1019 16.6299 53.4852 16.4614 53.9442 16.3491C54.4032 16.2319 54.9354 16.1733 55.5409 16.1733H56.764ZM62.9938 19.4619L64.7516 13.0752H66.9562L64.2829 21H62.9499L62.9938 19.4619ZM61.7853 13.0752L63.5504 19.4692L63.5871 21H62.2467L59.5734 13.0752H61.7853ZM72.2412 19.2129V15.6826C72.2412 15.4287 72.1997 15.2114 72.1167 15.0308C72.0337 14.8452 71.9043 14.7012 71.7285 14.5986C71.5576 14.4961 71.3354 14.4448 71.062 14.4448C70.8276 14.4448 70.625 14.4863 70.4541 14.5693C70.2832 14.6475 70.1513 14.7622 70.0586 14.9136C69.9658 15.0601 69.9194 15.2334 69.9194 15.4336H67.81C67.81 15.0967 67.8882 14.7769 68.0444 14.4741C68.2007 14.1714 68.4277 13.9053 68.7256 13.6758C69.0234 13.4414 69.3774 13.2583 69.7876 13.1265C70.2026 12.9946 70.6665 12.9287 71.1792 12.9287C71.7944 12.9287 72.3413 13.0312 72.8198 13.2363C73.2983 13.4414 73.6743 13.749 73.9477 14.1592C74.2261 14.5693 74.3652 15.082 74.3652 15.6973V19.0884C74.3652 19.5229 74.3921 19.8794 74.4458 20.1577C74.4995 20.4312 74.5776 20.6704 74.6802 20.8755V21H72.5488C72.4463 20.7852 72.3681 20.5166 72.3144 20.1943C72.2656 19.8672 72.2412 19.54 72.2412 19.2129ZM72.5195 16.1733L72.5342 17.3672H71.355C71.0766 17.3672 70.8349 17.3989 70.6299 17.4624C70.4248 17.5259 70.2563 17.6162 70.1245 17.7334C69.9927 17.8457 69.895 17.9775 69.8315 18.1289C69.7729 18.2803 69.7436 18.4463 69.7436 18.627C69.7436 18.8076 69.7851 18.9712 69.8681 19.1177C69.9512 19.2593 70.0708 19.3716 70.227 19.4546C70.3833 19.5327 70.5664 19.5718 70.7763 19.5718C71.0937 19.5718 71.3696 19.5083 71.604 19.3813C71.8384 19.2544 72.019 19.0981 72.146 18.9126C72.2778 18.7271 72.3462 18.5513 72.3511 18.3853L72.9077 19.2788C72.8296 19.479 72.7221 19.6865 72.5854 19.9014C72.4536 20.1162 72.2851 20.3188 72.0801 20.5093C71.875 20.6948 71.6284 20.8486 71.3403 20.9707C71.0522 21.0879 70.7104 21.1465 70.3149 21.1465C69.812 21.1465 69.3554 21.0464 68.9453 20.8462C68.54 20.6411 68.2178 20.3604 67.9785 20.0039C67.7441 19.6426 67.6269 19.2324 67.6269 18.7734C67.6269 18.3584 67.7051 17.9897 67.8613 17.6675C68.0176 17.3452 68.2471 17.0742 68.5498 16.8545C68.8574 16.6299 69.2407 16.4614 69.6997 16.3491C70.1587 16.2319 70.6909 16.1733 71.2964 16.1733H72.5195Z" fill="#CB3837"/>
<path d="M82 0H5C2.23858 0 0 2.23858 0 5V27C0 29.7614 2.23858 32 5 32H82C84.7614 32 87 29.7614 87 27V5C87 2.23858 84.7614 0 82 0Z" fill="url(#paint0_linear_2_831)"/>
<defs>
<linearGradient id="paint0_linear_2_831" x1="0" y1="0" x2="0" y2="32" gradientUnits="userSpaceOnUse">
<stop stop-color="#BBBBBB" stop-opacity="0.1"/>
<stop offset="1" stop-opacity="0.1"/>
</linearGradient>
<clipPath id="clip0_2_831">
<rect width="22.9744" height="22.9744" fill="white" transform="translate(4 3.94873)"/>
</clipPath>
</defs>
</svg>
