<svg width="130" height="32" viewBox="0 0 130 32" fill="none" xmlns="http://www.w3.org/2000/svg">
<path d="M125 0H31V32H125C127.761 32 130 29.7614 130 27V5C130 2.23858 127.761 0 125 0Z" fill="#F1C731"/>
<path d="M31 0H5C2.23858 0 0 2.23858 0 5V27C0 29.7614 2.23858 32 5 32H31V0Z" fill="#F1C731"/>
<path d="M49.0308 18.7261V11.3359H51.2208V18.7261C51.2208 19.439 51.0645 20.0518 50.752 20.5645C50.4395 21.0723 50.0123 21.4629 49.4703 21.7363C48.9332 22.0098 48.3277 22.1465 47.6539 22.1465C46.9556 22.1465 46.3379 22.0293 45.8008 21.7949C45.2637 21.5605 44.8414 21.2017 44.5337 20.7183C44.2261 20.23 44.0723 19.6123 44.0723 18.8652H46.2769C46.2769 19.2559 46.3306 19.5659 46.438 19.7954C46.5504 20.0249 46.709 20.1885 46.9141 20.2861C47.1192 20.3838 47.3658 20.4326 47.6539 20.4326C47.9322 20.4326 48.1739 20.3667 48.379 20.2349C48.584 20.103 48.7427 19.9102 48.855 19.6562C48.9722 19.4023 49.0308 19.0923 49.0308 18.7261ZM57.4213 20.2129V16.6826C57.4213 16.4287 57.3798 16.2114 57.2968 16.0308C57.2137 15.8452 57.0844 15.7012 56.9086 15.5986C56.7377 15.4961 56.5155 15.4448 56.2421 15.4448C56.0077 15.4448 55.8051 15.4863 55.6342 15.5693C55.4633 15.6475 55.3314 15.7622 55.2387 15.9136C55.1459 16.0601 55.0995 16.2334 55.0995 16.4336H52.9901C52.9901 16.0967 53.0682 15.7769 53.2245 15.4741C53.3807 15.1714 53.6078 14.9053 53.9056 14.6758C54.2035 14.4414 54.5575 14.2583 54.9677 14.1265C55.3827 13.9946 55.8466 13.9287 56.3593 13.9287C56.9745 13.9287 57.5214 14.0312 57.9999 14.2363C58.4784 14.4414 58.8544 14.749 59.1278 15.1592C59.4061 15.5693 59.5453 16.082 59.5453 16.6973V20.0884C59.5453 20.5229 59.5721 20.8794 59.6259 21.1577C59.6796 21.4312 59.7577 21.6704 59.8602 21.8755V22H57.7289C57.6263 21.7852 57.5482 21.5166 57.4945 21.1943C57.4457 20.8672 57.4213 20.54 57.4213 20.2129ZM57.6996 17.1733L57.7142 18.3672H56.535C56.2567 18.3672 56.015 18.3989 55.8099 18.4624C55.6049 18.5259 55.4364 18.6162 55.3046 18.7334C55.1727 18.8457 55.0751 18.9775 55.0116 19.1289C54.953 19.2803 54.9237 19.4463 54.9237 19.627C54.9237 19.8076 54.9652 19.9712 55.0482 20.1177C55.1312 20.2593 55.2509 20.3716 55.4071 20.4546C55.5634 20.5327 55.7465 20.5718 55.9564 20.5718C56.2738 20.5718 56.5497 20.5083 56.7841 20.3813C57.0184 20.2544 57.1991 20.0981 57.3261 19.9126C57.4579 19.7271 57.5262 19.5513 57.5311 19.3853L58.0878 20.2788C58.0096 20.479 57.9022 20.6865 57.7655 20.9014C57.6337 21.1162 57.4652 21.3188 57.2601 21.5093C57.0551 21.6948 56.8085 21.8486 56.5204 21.9707C56.2323 22.0879 55.8905 22.1465 55.495 22.1465C54.9921 22.1465 54.5355 22.0464 54.1254 21.8462C53.7201 21.6411 53.3978 21.3604 53.1586 21.0039C52.9242 20.6426 52.807 20.2324 52.807 19.7734C52.807 19.3584 52.8851 18.9897 53.0414 18.6675C53.1976 18.3452 53.4271 18.0742 53.7299 17.8545C54.0375 17.6299 54.4208 17.4614 54.8798 17.3491C55.3387 17.2319 55.871 17.1733 56.4764 17.1733H57.6996ZM63.9294 20.4619L65.6872 14.0752H67.8918L65.2185 22H63.8854L63.9294 20.4619ZM62.7209 14.0752L64.486 20.4692L64.5227 22H63.1823L60.509 14.0752H62.7209ZM73.1768 20.2129V16.6826C73.1768 16.4287 73.1353 16.2114 73.0523 16.0308C72.9693 15.8452 72.8399 15.7012 72.6641 15.5986C72.4932 15.4961 72.271 15.4448 71.9976 15.4448C71.7632 15.4448 71.5606 15.4863 71.3897 15.5693C71.2188 15.6475 71.0869 15.7622 70.9942 15.9136C70.9014 16.0601 70.855 16.2334 70.855 16.4336H68.7456C68.7456 16.0967 68.8237 15.7769 68.98 15.4741C69.1362 15.1714 69.3633 14.9053 69.6612 14.6758C69.959 14.4414 70.313 14.2583 70.7232 14.1265C71.1382 13.9946 71.6021 13.9287 72.1148 13.9287C72.73 13.9287 73.2769 14.0312 73.7554 14.2363C74.2339 14.4414 74.6099 14.749 74.8833 15.1592C75.1616 15.5693 75.3008 16.082 75.3008 16.6973V20.0884C75.3008 20.5229 75.3277 20.8794 75.3814 21.1577C75.4351 21.4312 75.5132 21.6704 75.6157 21.8755V22H73.4844C73.3819 21.7852 73.3037 21.5166 73.25 21.1943C73.2012 20.8672 73.1768 20.54 73.1768 20.2129ZM73.4551 17.1733L73.4697 18.3672H72.2905C72.0122 18.3672 71.7705 18.3989 71.5654 18.4624C71.3604 18.5259 71.1919 18.6162 71.0601 18.7334C70.9282 18.8457 70.8306 18.9775 70.7671 19.1289C70.7085 19.2803 70.6792 19.4463 70.6792 19.627C70.6792 19.8076 70.7207 19.9712 70.8037 20.1177C70.8867 20.2593 71.0064 20.3716 71.1626 20.4546C71.3189 20.5327 71.502 20.5718 71.7119 20.5718C72.0293 20.5718 72.3052 20.5083 72.5396 20.3813C72.7739 20.2544 72.9546 20.0981 73.0816 19.9126C73.2134 19.7271 73.2818 19.5513 73.2866 19.3853L73.8433 20.2788C73.7652 20.479 73.6577 20.6865 73.521 20.9014C73.3892 21.1162 73.2207 21.3188 73.0156 21.5093C72.8106 21.6948 72.564 21.8486 72.2759 21.9707C71.9878 22.0879 71.646 22.1465 71.2505 22.1465C70.7476 22.1465 70.291 22.0464 69.8809 21.8462C69.4756 21.6411 69.1533 21.3604 68.9141 21.0039C68.6797 20.6426 68.5625 20.2324 68.5625 19.7734C68.5625 19.3584 68.6406 18.9897 68.7969 18.6675C68.9531 18.3452 69.1826 18.0742 69.4854 17.8545C69.793 17.6299 70.1763 17.4614 70.6353 17.3491C71.0943 17.2319 71.6265 17.1733 72.232 17.1733H73.4551ZM82.7904 19.2095C82.7904 19.019 82.7611 18.8481 82.7025 18.6968C82.6488 18.5405 82.5462 18.3989 82.3949 18.272C82.2435 18.1401 82.0311 18.0107 81.7577 17.8838C81.4842 17.7568 81.1302 17.625 80.6956 17.4883C80.2122 17.332 79.7533 17.1562 79.3187 16.9609C78.889 16.7656 78.5081 16.5386 78.1761 16.2798C77.849 16.0161 77.5902 15.7109 77.3997 15.3643C77.2142 15.0176 77.1214 14.6147 77.1214 14.1558C77.1214 13.7114 77.2191 13.3086 77.4144 12.9473C77.6097 12.5811 77.8831 12.2686 78.2347 12.0098C78.5863 11.7461 79.0013 11.5435 79.4798 11.4019C79.9632 11.2603 80.493 11.1895 81.0692 11.1895C81.8553 11.1895 82.5413 11.3311 83.1273 11.6143C83.7132 11.8975 84.1673 12.2856 84.4896 12.7788C84.8167 13.272 84.9803 13.8359 84.9803 14.4707H82.7977C82.7977 14.1582 82.7318 13.8848 82.5999 13.6504C82.473 13.4111 82.2777 13.2231 82.014 13.0864C81.7552 12.9497 81.4281 12.8813 81.0326 12.8813C80.6517 12.8813 80.3343 12.9399 80.0804 13.0571C79.8265 13.1694 79.6361 13.3232 79.5091 13.5186C79.3822 13.709 79.3187 13.9238 79.3187 14.1631C79.3187 14.3438 79.3626 14.5073 79.4505 14.6538C79.5433 14.8003 79.68 14.937 79.8607 15.064C80.0413 15.1909 80.2635 15.3105 80.5272 15.4229C80.7909 15.5352 81.096 15.645 81.4427 15.7524C82.0238 15.9282 82.534 16.126 82.9735 16.3457C83.4178 16.5654 83.7889 16.812 84.0868 17.0854C84.3846 17.3589 84.6092 17.6689 84.7606 18.0156C84.912 18.3623 84.9876 18.7554 84.9876 19.1948C84.9876 19.6587 84.8973 20.0737 84.7166 20.4399C84.536 20.8062 84.2747 21.1162 83.9329 21.3701C83.5912 21.624 83.1834 21.8169 82.7098 21.9487C82.2362 22.0806 81.7064 22.1465 81.1204 22.1465C80.5931 22.1465 80.0731 22.0781 79.5604 21.9414C79.0477 21.7998 78.5814 21.5874 78.1615 21.3042C77.7464 21.021 77.4144 20.6597 77.1654 20.2202C76.9163 19.7808 76.7918 19.2607 76.7918 18.6602H78.9964C78.9964 18.9922 79.0477 19.2729 79.1502 19.5024C79.2528 19.7319 79.3968 19.9175 79.5824 20.0591C79.7728 20.2007 79.9974 20.3032 80.2562 20.3667C80.5199 20.4302 80.8079 20.4619 81.1204 20.4619C81.5013 20.4619 81.8138 20.4082 82.0579 20.3008C82.307 20.1934 82.4901 20.0444 82.6073 19.854C82.7293 19.6636 82.7904 19.4487 82.7904 19.2095ZM89.8039 20.4985C90.0627 20.4985 90.2921 20.4497 90.4923 20.3521C90.6925 20.2495 90.8488 20.1079 90.9611 19.9272C91.0783 19.7417 91.1393 19.5244 91.1442 19.2754H93.1291C93.1242 19.832 92.9753 20.3276 92.6823 20.7622C92.3893 21.1919 91.9963 21.5312 91.5031 21.7803C91.0099 22.0244 90.4582 22.1465 89.8478 22.1465C89.2326 22.1465 88.6955 22.0439 88.2365 21.8389C87.7824 21.6338 87.404 21.3506 87.1012 20.9893C86.7985 20.623 86.5714 20.1982 86.4201 19.7148C86.2687 19.2266 86.193 18.7041 86.193 18.1475V17.9351C86.193 17.3735 86.2687 16.8511 86.4201 16.3677C86.5714 15.8794 86.7985 15.4546 87.1012 15.0933C87.404 14.7271 87.7824 14.4414 88.2365 14.2363C88.6906 14.0312 89.2228 13.9287 89.8332 13.9287C90.4826 13.9287 91.0514 14.0532 91.5397 14.3022C92.0329 14.5513 92.4186 14.9077 92.6969 15.3716C92.9801 15.8306 93.1242 16.375 93.1291 17.0049H91.1442C91.1393 16.7412 91.0832 16.502 90.9757 16.2871C90.8732 16.0723 90.7218 15.9014 90.5216 15.7744C90.3263 15.6426 90.0846 15.5767 89.7965 15.5767C89.4889 15.5767 89.2375 15.6426 89.0421 15.7744C88.8468 15.9014 88.6955 16.0771 88.588 16.3018C88.4806 16.5215 88.4049 16.7729 88.361 17.0562C88.3219 17.3345 88.3024 17.6274 88.3024 17.9351V18.1475C88.3024 18.4551 88.3219 18.7505 88.361 19.0337C88.4001 19.3169 88.4733 19.5684 88.5807 19.7881C88.693 20.0078 88.8468 20.1812 89.0421 20.3081C89.2375 20.4351 89.4914 20.4985 89.8039 20.4985ZM96.6416 15.8037V22H94.5322V14.0752H96.5171L96.6416 15.8037ZM99.0293 14.0239L98.9927 15.9795C98.8901 15.9648 98.7656 15.9526 98.6191 15.9429C98.4775 15.9282 98.3481 15.9209 98.2309 15.9209C97.9331 15.9209 97.6743 15.96 97.4546 16.0381C97.2397 16.1113 97.0591 16.2212 96.9126 16.3677C96.771 16.5142 96.6636 16.6924 96.5903 16.9023C96.522 17.1123 96.4829 17.3516 96.4731 17.6201L96.0483 17.4883C96.0483 16.9756 96.0996 16.5044 96.2021 16.0747C96.3047 15.6401 96.4536 15.2617 96.6489 14.9395C96.8491 14.6172 97.0932 14.3682 97.3813 14.1924C97.6694 14.0166 97.999 13.9287 98.3701 13.9287C98.4873 13.9287 98.6069 13.9385 98.729 13.958C98.8511 13.9727 98.9512 13.9946 99.0293 14.0239ZM102.432 14.0752V22H100.315V14.0752H102.432ZM100.183 12.0098C100.183 11.7021 100.291 11.4482 100.506 11.248C100.721 11.0479 101.009 10.9478 101.37 10.9478C101.726 10.9478 102.012 11.0479 102.227 11.248C102.447 11.4482 102.556 11.7021 102.556 12.0098C102.556 12.3174 102.447 12.5713 102.227 12.7715C102.012 12.9717 101.726 13.0718 101.37 13.0718C101.009 13.0718 100.721 12.9717 100.506 12.7715C100.291 12.5713 100.183 12.3174 100.183 12.0098ZM106.464 15.5986V25.0469H104.355V14.0752H106.311L106.464 15.5986ZM111.482 17.9497V18.1035C111.482 18.6797 111.413 19.2144 111.276 19.7075C111.145 20.2007 110.949 20.6304 110.691 20.9966C110.432 21.3579 110.109 21.6411 109.724 21.8462C109.343 22.0464 108.903 22.1465 108.405 22.1465C107.922 22.1465 107.502 22.0488 107.146 21.8535C106.789 21.6582 106.489 21.3848 106.245 21.0332C106.005 20.6768 105.813 20.2642 105.666 19.7954C105.52 19.3267 105.407 18.8237 105.329 18.2866V17.8838C105.407 17.3076 105.52 16.7803 105.666 16.3018C105.813 15.8184 106.005 15.4009 106.245 15.0493C106.489 14.6929 106.787 14.417 107.138 14.2217C107.495 14.0264 107.912 13.9287 108.391 13.9287C108.894 13.9287 109.336 14.0239 109.716 14.2144C110.102 14.4048 110.424 14.6782 110.683 15.0347C110.947 15.3911 111.145 15.8159 111.276 16.3091C111.413 16.8022 111.482 17.3491 111.482 17.9497ZM109.365 18.1035V17.9497C109.365 17.6128 109.336 17.3027 109.277 17.0195C109.223 16.7314 109.135 16.48 109.013 16.2651C108.896 16.0503 108.74 15.8843 108.545 15.7671C108.354 15.645 108.122 15.584 107.849 15.584C107.561 15.584 107.314 15.6304 107.109 15.7231C106.909 15.8159 106.745 15.9502 106.618 16.126C106.491 16.3018 106.396 16.5117 106.333 16.7559C106.269 17 106.23 17.2759 106.215 17.5835V18.6016C106.24 18.9629 106.308 19.2876 106.421 19.5757C106.533 19.8589 106.706 20.0835 106.941 20.2495C107.175 20.4155 107.483 20.4985 107.863 20.4985C108.142 20.4985 108.376 20.4375 108.567 20.3154C108.757 20.1885 108.911 20.0151 109.028 19.7954C109.15 19.5757 109.235 19.3218 109.284 19.0337C109.338 18.7456 109.365 18.4355 109.365 18.1035ZM116.854 14.0752V15.5693H112.24V14.0752H116.854ZM113.383 12.1196H115.492V19.6123C115.492 19.8418 115.521 20.0176 115.58 20.1396C115.643 20.2617 115.736 20.3472 115.858 20.396C115.98 20.4399 116.134 20.4619 116.32 20.4619C116.452 20.4619 116.569 20.457 116.671 20.4473C116.779 20.4326 116.869 20.418 116.942 20.4033L116.95 21.9561C116.769 22.0146 116.574 22.061 116.364 22.0952C116.154 22.1294 115.922 22.1465 115.668 22.1465C115.204 22.1465 114.799 22.0708 114.452 21.9194C114.11 21.7632 113.847 21.5142 113.661 21.1724C113.476 20.8306 113.383 20.3813 113.383 19.8247V12.1196Z" fill="black"/>
<path d="M125 0H5C2.23858 0 0 2.23858 0 5V27C0 29.7614 2.23858 32 5 32H125C127.761 32 130 29.7614 130 27V5C130 2.23858 127.761 0 125 0Z" fill="url(#paint0_linear_2_874)"/>
<g clip-path="url(#clip0_2_874)">
<path d="M8 4H33V29H8V4Z" fill="black"/>
<path d="M14.5734 24.8917L16.4865 23.7339C16.8557 24.3883 17.1914 24.942 17.9968 24.942C18.7687 24.942 19.2556 24.6401 19.2556 23.4655V15.4774H21.6049V23.4987C21.6049 25.932 20.1785 27.0396 18.0975 27.0396C16.2181 27.0396 15.1271 26.0663 14.5733 24.8916M22.881 24.64L24.7938 23.5325C25.2975 24.3548 25.9519 24.9589 27.1098 24.9589C28.0833 24.9589 28.704 24.4722 28.704 23.8009C28.704 22.9955 28.0663 22.7101 26.9923 22.2404L26.4051 21.9884C24.7101 21.267 23.5857 20.3608 23.5857 18.4477C23.5857 16.6856 24.9282 15.343 27.026 15.343C28.5195 15.343 29.5935 15.8633 30.3654 17.2226L28.5361 18.3974C28.1333 17.6758 27.6972 17.3906 27.0259 17.3906C26.3378 17.3906 25.9015 17.8269 25.9015 18.3974C25.9015 19.1022 26.3378 19.3876 27.3446 19.824L27.9319 20.0756C29.929 20.9316 31.0533 21.8042 31.0533 23.7674C31.0533 25.8821 29.392 27.0399 27.1601 27.0399C24.9785 27.0399 23.5688 25.9995 22.8809 24.6401" fill="#F1C731"/>
</g>
<defs>
<linearGradient id="paint0_linear_2_874" x1="0" y1="0" x2="0" y2="32" gradientUnits="userSpaceOnUse">
<stop stop-color="#BBBBBB" stop-opacity="0.1"/>
<stop offset="1" stop-opacity="0.1"/>
</linearGradient>
<clipPath id="clip0_2_874">
<rect width="25" height="25" fill="white" transform="translate(8 4)"/>
</clipPath>
</defs>
</svg>
