<svg width="87" height="32" viewBox="0 0 87 32" fill="none" xmlns="http://www.w3.org/2000/svg">
<path d="M82 0H31V32H82C84.7614 32 87 29.7614 87 27V5C87 2.23858 84.7614 0 82 0Z" fill="#8993BE"/>
<path d="M31 0H5C2.23858 0 0 2.23858 0 5V27C0 29.7614 2.23858 32 5 32H31V0Z" fill="#8993BE"/>
<g filter="url(#filter0_d_2_853)">
<path d="M17.5 9.69875C24.7309 9.69875 30.2913 12.7017 30.2913 16C30.2913 19.2983 24.7267 22.3012 17.5 22.3012C10.2691 22.3012 4.70875 19.2983 4.70875 16C4.70875 12.7017 10.2733 9.69875 17.5 9.69875ZM17.5 9C10.0455 9 4 12.1319 4 16C4 19.8681 10.0455 23 17.5 23C24.9545 23 31 19.8681 31 16C31 12.1319 24.9545 9 17.5 9ZM13.2053 15.4385C12.872 17.123 11.695 16.9483 10.248 16.9483L10.8259 14.0119C12.4291 14.0119 13.5175 13.8414 13.2053 15.4385ZM8.10906 19.9222H9.65734L10.0244 18.0588C11.7583 18.0588 12.8341 18.1836 13.8297 17.2644C14.9308 16.2662 15.2177 14.4902 14.433 13.6001C14.0238 13.1343 13.3656 12.9055 12.4713 12.9055H9.48859L8.10906 19.9222ZM15.9433 11.038H17.4831L17.1161 12.9014C18.445 12.9014 19.6769 12.8057 20.2717 13.3464C20.8961 13.9121 20.5966 14.6358 19.9216 18.0505H18.3606C19.0103 14.7481 19.1327 14.4736 18.8964 14.224C18.6686 13.9828 18.1497 14.0327 16.8967 14.0327L16.1036 18.0505H14.5637L15.9433 11.038V11.038ZM25.3047 15.4385C24.9672 17.148 23.7564 16.9483 22.3473 16.9483L22.9253 14.0119C24.5369 14.0119 25.6169 13.8414 25.3047 15.4385V15.4385ZM20.2084 19.9222H21.7609L22.128 18.0588C23.9505 18.0588 24.9588 18.1628 25.9333 17.2644C27.0344 16.2662 27.3213 14.4902 26.5366 13.6001C26.1273 13.1343 25.4692 12.9055 24.5748 12.9055H21.5922L20.2084 19.9222V19.9222Z" fill="black"/>
</g>
<path d="M48.9616 18.1987H46.2443V16.4849H48.9616C49.3815 16.4849 49.7233 16.4165 49.987 16.2798C50.2507 16.1382 50.4435 15.9429 50.5656 15.6938C50.6877 15.4448 50.7487 15.1641 50.7487 14.8516C50.7487 14.5342 50.6877 14.2388 50.5656 13.9653C50.4435 13.6919 50.2507 13.4722 49.987 13.3062C49.7233 13.1401 49.3815 13.0571 48.9616 13.0571H47.006V22H44.8088V11.3359H48.9616C49.7966 11.3359 50.5119 11.4873 51.1076 11.79C51.7082 12.0879 52.1672 12.5005 52.4846 13.0278C52.8019 13.5552 52.9606 14.1582 52.9606 14.8369C52.9606 15.5254 52.8019 16.1211 52.4846 16.624C52.1672 17.127 51.7082 17.5151 51.1076 17.7886C50.5119 18.062 49.7966 18.1987 48.9616 18.1987ZM61.7686 15.6792V17.3931H56.2021V15.6792H61.7686ZM56.854 11.3359V22H54.6567V11.3359H56.854ZM63.3359 11.3359V22H61.146V11.3359H63.3359ZM69.5804 18.1987H66.8631V16.4849H69.5804C70.0003 16.4849 70.3421 16.4165 70.6058 16.2798C70.8695 16.1382 71.0623 15.9429 71.1844 15.6938C71.3065 15.4448 71.3675 15.1641 71.3675 14.8516C71.3675 14.5342 71.3065 14.2388 71.1844 13.9653C71.0623 13.6919 70.8695 13.4722 70.6058 13.3062C70.3421 13.1401 70.0003 13.0571 69.5804 13.0571H67.6248V22H65.4276V11.3359H69.5804C70.4154 11.3359 71.1307 11.4873 71.7264 11.79C72.327 12.0879 72.786 12.5005 73.1033 13.0278C73.4207 13.5552 73.5794 14.1582 73.5794 14.8369C73.5794 15.5254 73.4207 16.1211 73.1033 16.624C72.786 17.127 72.327 17.5151 71.7264 17.7886C71.1307 18.062 70.4154 18.1987 69.5804 18.1987Z" fill="black"/>
<path d="M82 0H5C2.23858 0 0 2.23858 0 5V27C0 29.7614 2.23858 32 5 32H82C84.7614 32 87 29.7614 87 27V5C87 2.23858 84.7614 0 82 0Z" fill="url(#paint0_linear_2_853)"/>
<defs>
<filter id="filter0_d_2_853" x="0" y="9" width="35" height="22" filterUnits="userSpaceOnUse" color-interpolation-filters="sRGB">
<feFlood flood-opacity="0" result="BackgroundImageFix"/>
<feColorMatrix in="SourceAlpha" type="matrix" values="0 0 0 0 0 0 0 0 0 0 0 0 0 0 0 0 0 0 127 0" result="hardAlpha"/>
<feOffset dy="4"/>
<feGaussianBlur stdDeviation="2"/>
<feComposite in2="hardAlpha" operator="out"/>
<feColorMatrix type="matrix" values="0 0 0 0 0 0 0 0 0 0 0 0 0 0 0 0 0 0 0.25 0"/>
<feBlend mode="normal" in2="BackgroundImageFix" result="effect1_dropShadow_2_853"/>
<feBlend mode="normal" in="SourceGraphic" in2="effect1_dropShadow_2_853" result="shape"/>
</filter>
<linearGradient id="paint0_linear_2_853" x1="0" y1="0" x2="0" y2="32" gradientUnits="userSpaceOnUse">
<stop stop-color="#BBBBBB" stop-opacity="0.1"/>
<stop offset="1" stop-opacity="0.1"/>
</linearGradient>
</defs>
</svg>
