<svg width="107" height="32" viewBox="0 0 107 32" fill="none" xmlns="http://www.w3.org/2000/svg">
<path d="M102 0H31V32H102C104.761 32 107 29.7614 107 27V5C107 2.23858 104.761 0 102 0Z" fill="white"/>
<path d="M31 0H5C2.23858 0 0 2.23858 0 5V27C0 29.7614 2.23858 32 5 32H31V0Z" fill="#29B2E7"/>
<path d="M17.0785 15.6607H14.6V13.4334H17.0785V15.6607ZM17.0785 8H14.6V10.2761H17.0785V8ZM20.0108 13.4296H17.5323V15.657H20.0108V13.4296ZM14.15 10.7261H11.6714V12.9797H14.15V10.7261ZM17.0785 10.7261H14.6V12.9797H17.0785V10.7261ZM27.4578 14.4758C26.9179 14.1121 25.6729 13.9808 24.7168 14.1608C24.593 13.2609 24.0906 12.4772 23.1756 11.7722L22.6507 11.4235L22.3019 11.9485C21.612 12.9909 21.4245 14.7083 22.1632 15.8407C21.837 16.017 21.1958 16.2569 20.3483 16.2419H4.04817C3.72194 18.1468 4.26566 20.6216 5.69806 22.3203C7.08921 23.9664 9.1741 24.8026 11.9001 24.8026C17.8022 24.8026 22.1707 22.084 24.2143 17.1456C25.0167 17.1606 26.7491 17.1494 27.6378 15.4507C27.6941 15.357 27.8853 14.9558 27.9565 14.8095L27.4578 14.4758ZM8.29288 13.4296H5.81805V15.657H8.29663V13.4296H8.29288ZM11.2214 13.4296H8.74285V15.657H11.2214V13.4296ZM14.15 13.4296H11.6714V15.657H14.15V13.4296ZM11.2214 10.7261H8.74285V12.9797H11.2214V10.7261Z" fill="white"/>
<path d="M49.0236 22H46.7019L46.7165 20.2861H49.0236C49.5998 20.2861 50.0856 20.1567 50.4812 19.8979C50.8767 19.6343 51.1745 19.251 51.3747 18.748C51.5798 18.2451 51.6823 17.6372 51.6823 16.9243V16.4043C51.6823 15.8574 51.6237 15.3765 51.5065 14.9614C51.3942 14.5464 51.2258 14.1973 51.0012 13.9141C50.7766 13.6309 50.5007 13.4185 50.1735 13.2769C49.8464 13.1304 49.4704 13.0571 49.0456 13.0571H46.6579V11.3359H49.0456C49.7585 11.3359 50.4104 11.458 51.0012 11.7021C51.5969 11.9414 52.112 12.2856 52.5466 12.7349C52.9812 13.1841 53.3156 13.7212 53.55 14.3462C53.7893 14.9663 53.9089 15.6572 53.9089 16.4189V16.9243C53.9089 17.6812 53.7893 18.3721 53.55 18.9971C53.3156 19.6221 52.9812 20.1592 52.5466 20.6084C52.1169 21.0527 51.6018 21.397 51.0012 21.6411C50.4055 21.8804 49.7463 22 49.0236 22ZM47.947 11.3359V22H45.7497V11.3359H47.947ZM55.2168 18.1182V17.9644C55.2168 17.3833 55.2998 16.8486 55.4658 16.3604C55.6319 15.8672 55.8736 15.4399 56.1909 15.0786C56.5083 14.7173 56.8989 14.4365 57.3628 14.2363C57.8267 14.0312 58.3589 13.9287 58.9595 13.9287C59.5601 13.9287 60.0947 14.0312 60.5635 14.2363C61.0322 14.4365 61.4253 14.7173 61.7427 15.0786C62.065 15.4399 62.3091 15.8672 62.4751 16.3604C62.6411 16.8486 62.7241 17.3833 62.7241 17.9644V18.1182C62.7241 18.6943 62.6411 19.229 62.4751 19.7222C62.3091 20.2104 62.065 20.6377 61.7427 21.0039C61.4253 21.3652 61.0347 21.646 60.5708 21.8462C60.107 22.0464 59.5747 22.1465 58.9741 22.1465C58.3736 22.1465 57.8389 22.0464 57.3701 21.8462C56.9063 21.646 56.5132 21.3652 56.1909 21.0039C55.8736 20.6377 55.6319 20.2104 55.4658 19.7222C55.2998 19.229 55.2168 18.6943 55.2168 18.1182ZM57.3262 17.9644V18.1182C57.3262 18.4502 57.3555 18.7603 57.4141 19.0483C57.4727 19.3364 57.5654 19.5903 57.6924 19.8101C57.8242 20.0249 57.9951 20.1934 58.2051 20.3154C58.4151 20.4375 58.6714 20.4985 58.9741 20.4985C59.2671 20.4985 59.5186 20.4375 59.7285 20.3154C59.9385 20.1934 60.107 20.0249 60.2339 19.8101C60.3609 19.5903 60.4536 19.3364 60.5122 19.0483C60.5757 18.7603 60.6074 18.4502 60.6074 18.1182V17.9644C60.6074 17.6421 60.5757 17.3394 60.5122 17.0562C60.4536 16.7681 60.3584 16.5142 60.2266 16.2944C60.0996 16.0698 59.9312 15.894 59.7212 15.7671C59.5112 15.6401 59.2573 15.5767 58.9595 15.5767C58.6616 15.5767 58.4077 15.6401 58.1978 15.7671C57.9927 15.894 57.8242 16.0698 57.6924 16.2944C57.5654 16.5142 57.4727 16.7681 57.4141 17.0562C57.3555 17.3394 57.3262 17.6421 57.3262 17.9644ZM67.4745 20.4985C67.7332 20.4985 67.9627 20.4497 68.1629 20.3521C68.3631 20.2495 68.5194 20.1079 68.6317 19.9272C68.7489 19.7417 68.8099 19.5244 68.8148 19.2754H70.7996C70.7948 19.832 70.6458 20.3276 70.3529 20.7622C70.0599 21.1919 69.6668 21.5312 69.1737 21.7803C68.6805 22.0244 68.1287 22.1465 67.5184 22.1465C66.9032 22.1465 66.3661 22.0439 65.9071 21.8389C65.453 21.6338 65.0746 21.3506 64.7718 20.9893C64.4691 20.623 64.242 20.1982 64.0907 19.7148C63.9393 19.2266 63.8636 18.7041 63.8636 18.1475V17.9351C63.8636 17.3735 63.9393 16.8511 64.0907 16.3677C64.242 15.8794 64.4691 15.4546 64.7718 15.0933C65.0746 14.7271 65.453 14.4414 65.9071 14.2363C66.3612 14.0312 66.8934 13.9287 67.5037 13.9287C68.1532 13.9287 68.722 14.0532 69.2103 14.3022C69.7035 14.5513 70.0892 14.9077 70.3675 15.3716C70.6507 15.8306 70.7948 16.375 70.7996 17.0049H68.8148C68.8099 16.7412 68.7537 16.502 68.6463 16.2871C68.5438 16.0723 68.3924 15.9014 68.1922 15.7744C67.9969 15.6426 67.7552 15.5767 67.4671 15.5767C67.1595 15.5767 66.908 15.6426 66.7127 15.7744C66.5174 15.9014 66.3661 16.0771 66.2586 16.3018C66.1512 16.5215 66.0755 16.7729 66.0316 17.0562C65.9925 17.3345 65.973 17.6274 65.973 17.9351V18.1475C65.973 18.4551 65.9925 18.7505 66.0316 19.0337C66.0706 19.3169 66.1439 19.5684 66.2513 19.7881C66.3636 20.0078 66.5174 20.1812 66.7127 20.3081C66.908 20.4351 67.162 20.4985 67.4745 20.4985ZM74.3122 10.7427V22H72.2028V10.7427H74.3122ZM79.3073 14.0752L75.8649 18.001L74.0192 19.8687L73.2502 18.3452L74.715 16.4849L76.7731 14.0752H79.3073ZM77.1173 22L74.7736 18.3379L76.2311 17.0635L79.549 22H77.1173ZM83.8965 22.1465C83.2812 22.1465 82.7295 22.0488 82.2412 21.8535C81.7529 21.6533 81.3379 21.3774 80.9961 21.0259C80.6592 20.6743 80.4004 20.2666 80.2197 19.8027C80.039 19.334 79.9487 18.8359 79.9487 18.3086V18.0156C79.9487 17.415 80.0342 16.8657 80.2051 16.3677C80.376 15.8696 80.6201 15.4375 80.9375 15.0713C81.2597 14.7051 81.6504 14.4243 82.1094 14.229C82.5683 14.0288 83.0859 13.9287 83.6621 13.9287C84.2236 13.9287 84.7217 14.0215 85.1562 14.207C85.5908 14.3926 85.9546 14.6562 86.2475 14.998C86.5454 15.3398 86.77 15.75 86.9214 16.2285C87.0727 16.7021 87.1484 17.2295 87.1484 17.8105V18.6895H80.8496V17.2832H85.0757V17.1221C85.0757 16.8291 85.022 16.5679 84.9145 16.3384C84.812 16.104 84.6557 15.9185 84.4458 15.7817C84.2358 15.645 83.9673 15.5767 83.6401 15.5767C83.3618 15.5767 83.1225 15.6377 82.9223 15.7598C82.7221 15.8818 82.5586 16.0527 82.4316 16.2725C82.3096 16.4922 82.2168 16.751 82.1533 17.0488C82.0947 17.3418 82.0654 17.6641 82.0654 18.0156V18.3086C82.0654 18.626 82.1094 18.9189 82.1972 19.1875C82.29 19.4561 82.4194 19.688 82.5854 19.8833C82.7563 20.0786 82.9614 20.23 83.2007 20.3374C83.4448 20.4448 83.7207 20.4985 84.0283 20.4985C84.4092 20.4985 84.7632 20.4253 85.0903 20.2788C85.4223 20.1274 85.708 19.9004 85.9472 19.5977L86.9726 20.7109C86.8066 20.9502 86.5796 21.1797 86.2915 21.3994C86.0083 21.6191 85.6665 21.7998 85.2661 21.9414C84.8657 22.0781 84.4092 22.1465 83.8965 22.1465ZM90.639 15.8037V22H88.5296V14.0752H90.5145L90.639 15.8037ZM93.0267 14.0239L92.99 15.9795C92.8875 15.9648 92.763 15.9526 92.6165 15.9429C92.4749 15.9282 92.3455 15.9209 92.2283 15.9209C91.9305 15.9209 91.6717 15.96 91.452 16.0381C91.2371 16.1113 91.0564 16.2212 90.91 16.3677C90.7684 16.5142 90.6609 16.6924 90.5877 16.9023C90.5193 17.1123 90.4803 17.3516 90.4705 17.6201L90.0457 17.4883C90.0457 16.9756 90.097 16.5044 90.1995 16.0747C90.3021 15.6401 90.451 15.2617 90.6463 14.9395C90.8465 14.6172 91.0906 14.3682 91.3787 14.1924C91.6668 14.0166 91.9964 13.9287 92.3675 13.9287C92.4847 13.9287 92.6043 13.9385 92.7264 13.958C92.8484 13.9727 92.9485 13.9946 93.0267 14.0239Z" fill="#0F1418"/>
<path d="M102 0H5C2.23858 0 0 2.23858 0 5V27C0 29.7614 2.23858 32 5 32H102C104.761 32 107 29.7614 107 27V5C107 2.23858 104.761 0 102 0Z" fill="url(#paint0_linear_17_8)"/>
<defs>
<linearGradient id="paint0_linear_17_8" x1="0" y1="0" x2="0" y2="32" gradientUnits="userSpaceOnUse">
<stop stop-color="#BBBBBB" stop-opacity="0.1"/>
<stop offset="1" stop-opacity="0.1"/>
</linearGradient>
</defs>
</svg>
