<svg width="119" height="32" viewBox="0 0 119 32" fill="none" xmlns="http://www.w3.org/2000/svg">
<path d="M114 0H31V32H114C116.761 32 119 29.7614 119 27V5C119 2.23858 116.761 0 114 0Z" fill="white"/>
<path d="M31 0H5C2.23858 0 0 2.23858 0 5V27C0 29.7614 2.23858 32 5 32H31V0Z" fill="#22333B"/>
<g clip-path="url(#clip0_28_27)">
<path d="M9.75633 23.3093H9.52031L8.34216 22.1349V21.8996L10.1432 20.1042H11.391L11.5574 20.27V21.5139L9.75633 23.3093ZM8.34216 10.0257V9.79044L9.52031 8.61597H9.75633L11.5574 10.4114V11.6553L11.391 11.8212H10.1432L8.34216 10.0257Z" fill="#05BDBA"/>
<path d="M18.7133 19.5237H16.9993L16.8562 19.381V15.3812C16.8562 14.6696 16.5756 14.118 15.7147 14.0987C15.2717 14.0871 14.7649 14.0987 14.2232 14.12L14.1419 14.2029V19.379L13.9987 19.5217H12.2848L12.1416 19.379V12.5464L12.2848 12.4036H16.1422C17.6416 12.4036 18.8564 13.6146 18.8564 15.1093V19.381L18.7133 19.5237Z" fill="#014847"/>
<path d="M10.0004 16.9626H3.14425L3.0011 16.8199V15.1073L3.14425 14.9646H10.0004L10.1435 15.1073V16.8199L10.0004 16.9626ZM27.8564 16.9626H21.0003L20.8571 16.8199V15.1073L21.0003 14.9646H27.8564L27.9996 15.1073V16.8199L27.8564 16.9626ZM14.5117 10.2687V5.14271L14.6549 5H16.3728L16.516 5.14271V10.2687L16.3728 10.4114H14.6549L14.5117 10.2687ZM14.5117 26.7846V21.6586L14.6549 21.5159H16.3728L16.516 21.6586V26.7846L16.3728 26.9272H14.6549L14.5117 26.7846Z" fill="#05BDBA"/>
</g>
<path d="M61.7671 11.3359V22H59.5699L55.2852 14.8516V22H53.0879V11.3359H55.2852L59.5772 18.4917V11.3359H61.7671ZM67.3744 22.1465C66.7591 22.1465 66.2074 22.0488 65.7191 21.8535C65.2308 21.6533 64.8158 21.3774 64.474 21.0259C64.1371 20.6743 63.8783 20.2666 63.6976 19.8027C63.517 19.334 63.4266 18.8359 63.4266 18.3086V18.0156C63.4266 17.415 63.5121 16.8657 63.683 16.3677C63.8539 15.8696 64.098 15.4375 64.4154 15.0713C64.7377 14.7051 65.1283 14.4243 65.5873 14.229C66.0462 14.0288 66.5638 13.9287 67.14 13.9287C67.7015 13.9287 68.1996 14.0215 68.6341 14.207C69.0687 14.3926 69.4325 14.6562 69.7254 14.998C70.0233 15.3398 70.2479 15.75 70.3993 16.2285C70.5506 16.7021 70.6263 17.2295 70.6263 17.8105V18.6895H64.3275V17.2832H68.5536V17.1221C68.5536 16.8291 68.4999 16.5679 68.3924 16.3384C68.2899 16.104 68.1337 15.9185 67.9237 15.7817C67.7137 15.645 67.4452 15.5767 67.118 15.5767C66.8397 15.5767 66.6004 15.6377 66.4003 15.7598C66.2001 15.8818 66.0365 16.0527 65.9095 16.2725C65.7875 16.4922 65.6947 16.751 65.6312 17.0488C65.5726 17.3418 65.5433 17.6641 65.5433 18.0156V18.3086C65.5433 18.626 65.5873 18.9189 65.6752 19.1875C65.7679 19.4561 65.8973 19.688 66.0633 19.8833C66.2342 20.0786 66.4393 20.23 66.6786 20.3374C66.9227 20.4448 67.1986 20.4985 67.5062 20.4985C67.8871 20.4985 68.2411 20.4253 68.5682 20.2788C68.9003 20.1274 69.1859 19.9004 69.4252 19.5977L70.4505 20.7109C70.2845 20.9502 70.0575 21.1797 69.7694 21.3994C69.4862 21.6191 69.1444 21.7998 68.744 21.9414C68.3436 22.0781 67.8871 22.1465 67.3744 22.1465ZM75.8893 14.0752V15.5693H71.2751V14.0752H75.8893ZM72.4177 12.1196H74.527V19.6123C74.527 19.8418 74.5563 20.0176 74.6149 20.1396C74.6784 20.2617 74.7712 20.3472 74.8932 20.396C75.0153 20.4399 75.1691 20.4619 75.3547 20.4619C75.4865 20.4619 75.6037 20.457 75.7062 20.4473C75.8137 20.4326 75.904 20.418 75.9772 20.4033L75.9846 21.9561C75.8039 22.0146 75.6086 22.061 75.3986 22.0952C75.1887 22.1294 74.9567 22.1465 74.7028 22.1465C74.2389 22.1465 73.8337 22.0708 73.487 21.9194C73.1452 21.7632 72.8815 21.5142 72.696 21.1724C72.5104 20.8306 72.4177 20.3813 72.4177 19.8247V12.1196ZM79.4971 10.75V22H77.3804V10.75H79.4971ZM83.6468 14.0752V22H81.5301V14.0752H83.6468ZM81.3983 12.0098C81.3983 11.7021 81.5057 11.4482 81.7205 11.248C81.9354 11.0479 82.2235 10.9478 82.5848 10.9478C82.9412 10.9478 83.2269 11.0479 83.4417 11.248C83.6614 11.4482 83.7713 11.7021 83.7713 12.0098C83.7713 12.3174 83.6614 12.5713 83.4417 12.7715C83.2269 12.9717 82.9412 13.0718 82.5848 13.0718C82.2235 13.0718 81.9354 12.9717 81.7205 12.7715C81.5057 12.5713 81.3983 12.3174 81.3983 12.0098ZM88.2579 22H86.1339V13.3721C86.1339 12.7715 86.2511 12.2661 86.4855 11.856C86.7247 11.4409 87.0592 11.1284 87.4889 10.9185C87.9235 10.7036 88.4386 10.5962 89.0343 10.5962C89.2296 10.5962 89.4176 10.6108 89.5983 10.6401C89.7789 10.6646 89.9547 10.6963 90.1256 10.7354L90.1037 12.3247C90.0109 12.3003 89.9132 12.2832 89.8107 12.2734C89.7081 12.2637 89.5885 12.2588 89.4518 12.2588C89.1979 12.2588 88.9806 12.3027 88.7999 12.3906C88.6242 12.4736 88.4899 12.5981 88.3971 12.7642C88.3043 12.9302 88.2579 13.1328 88.2579 13.3721V22ZM89.84 14.0752V15.5693H84.9547V14.0752H89.84ZM93.477 21.1064L95.5791 14.0752H97.8422L94.6562 23.1938C94.5879 23.394 94.4951 23.6089 94.3779 23.8384C94.2656 24.0679 94.1118 24.2852 93.9165 24.4902C93.726 24.7002 93.4843 24.8711 93.1914 25.0029C92.9033 25.1348 92.5493 25.2007 92.1294 25.2007C91.9292 25.2007 91.7656 25.1885 91.6386 25.1641C91.5117 25.1396 91.3603 25.1055 91.1845 25.0615V23.5161C91.2382 23.5161 91.2944 23.5161 91.353 23.5161C91.4116 23.521 91.4677 23.5234 91.5214 23.5234C91.7998 23.5234 92.0268 23.4917 92.2026 23.4282C92.3784 23.3647 92.52 23.2671 92.6274 23.1353C92.7348 23.0083 92.8203 22.8423 92.8838 22.6372L93.477 21.1064ZM92.5981 14.0752L94.3193 19.8174L94.6196 22.0513L93.184 22.2051L90.3349 14.0752H92.5981Z" fill="#0F1418"/>
<path d="M114 0H5C2.23858 0 0 2.23858 0 5V27C0 29.7614 2.23858 32 5 32H114C116.761 32 119 29.7614 119 27V5C119 2.23858 116.761 0 114 0Z" fill="url(#paint0_linear_28_27)"/>
<defs>
<linearGradient id="paint0_linear_28_27" x1="0" y1="0" x2="0" y2="32" gradientUnits="userSpaceOnUse">
<stop stop-color="#BBBBBB" stop-opacity="0.1"/>
<stop offset="1" stop-opacity="0.1"/>
</linearGradient>
<clipPath id="clip0_28_27">
<rect width="25" height="22" fill="white" transform="translate(3 5)"/>
</clipPath>
</defs>
</svg>
